<mxfile host="app.diagrams.net" modified="2022-05-19T09:45:55.486Z" agent="5.0 (Macintosh; Intel Mac OS X 10_15_7) AppleWebKit/537.36 (KHTML, like Gecko) Chrome/101.0.4951.64 Safari/537.36" etag="ggFl1ifqxJKIW9gUyJ14" version="17.0.0" type="github">
  <diagram id="tbHGBSiBHl1CVqf5RgN-" name="Page-1">
    <mxGraphModel dx="1554" dy="868" grid="1" gridSize="10" guides="1" tooltips="1" connect="1" arrows="1" fold="1" page="1" pageScale="1" pageWidth="827" pageHeight="1169" math="0" shadow="0">
      <root>
        <mxCell id="0" />
        <mxCell id="1" parent="0" />
        <mxCell id="juLNzmiUpROk8GgBu0bY-8" value="Designing Your Clothes&amp;nbsp; ----&amp;nbsp; Semantic Adjusting" style="strokeWidth=1;shadow=0;dashed=0;align=center;html=1;shape=mxgraph.mockup.containers.window;align=left;verticalAlign=top;spacingLeft=8;strokeColor2=#008cff;strokeColor3=#c4c4c4;fontColor=#666666;mainText=;fontSize=17;labelBackgroundColor=none;" parent="1" vertex="1">
          <mxGeometry x="94" y="100" width="640" height="520" as="geometry" />
        </mxCell>
        <mxCell id="juLNzmiUpROk8GgBu0bY-9" value="&lt;span style=&quot;color: rgba(0 , 0 , 0 , 0) ; font-family: monospace ; font-size: 0px&quot;&gt;%3CmxGraphModel%3E%3Croot%3E%3CmxCell%20id%3D%220%22%2F%3E%3CmxCell%20id%3D%221%22%20parent%3D%220%22%2F%3E%3CmxCell%20id%3D%222%22%20value%3D%22tee_sleeveless%22%20style%3D%22html%3D1%3Bshadow%3D0%3Bdashed%3D0%3Bshape%3Dmxgraph.bootstrap.rrect%3BrSize%3D5%3BstrokeColor%3Dnone%3BstrokeWidth%3D1%3BfillColor%3D%231CA5B8%3BfontColor%3D%23FFFFFF%3BwhiteSpace%3Dwrap%3Balign%3Dleft%3BverticalAlign%3Dmiddle%3BspacingLeft%3D0%3BfontStyle%3D1%3BfontSize%3D14%3Bspacing%3D5%3B%22%20vertex%3D%221%22%20parent%3D%221%22%3E%3CmxGeometry%20x%3D%22480%22%20y%3D%22240%22%20width%3D%22110%22%20height%3D%2220%22%20as%3D%22geometry%22%2F%3E%3C%2FmxCell%3E%3C%2Froot%3E%3C%2FmxGraphModel%3E&lt;/span&gt;&lt;span style=&quot;color: rgba(0 , 0 , 0 , 0) ; font-family: monospace ; font-size: 0px&quot;&gt;%3CmxGraphModel%3E%3Croot%3E%3CmxCell%20id%3D%220%22%2F%3E%3CmxCell%20id%3D%221%22%20parent%3D%220%22%2F%3E%3CmxCell%20id%3D%222%22%20value%3D%22tee_sleeveless%22%20style%3D%22html%3D1%3Bshadow%3D0%3Bdashed%3D0%3Bshape%3Dmxgraph.bootstrap.rrect%3BrSize%3D5%3BstrokeColor%3Dnone%3BstrokeWidth%3D1%3BfillColor%3D%231CA5B8%3BfontColor%3D%23FFFFFF%3BwhiteSpace%3Dwrap%3Balign%3Dleft%3BverticalAlign%3Dmiddle%3BspacingLeft%3D0%3BfontStyle%3D1%3BfontSize%3D14%3Bspacing%3D5%3B%22%20vertex%3D%221%22%20parent%3D%221%22%3E%3CmxGeometry%20x%3D%22480%22%20y%3D%22240%22%20width%3D%22110%22%20height%3D%2220%22%20as%3D%22geometry%22%2F%3E%3C%2FmxCell%3E%3C%2Froot%3E%3C%2FmxGraphModel%3E&lt;/span&gt;" style="html=1;shadow=0;dashed=0;shape=mxgraph.bootstrap.rrect;rSize=5;strokeColor=#1CA5B8;html=1;whiteSpace=wrap;fillColor=#ffffff;fontColor=#1CA5B8;verticalAlign=bottom;align=left;spacing=20;spacingBottom=0;fontSize=14;" parent="1" vertex="1">
          <mxGeometry x="370" y="190" width="360" height="350" as="geometry" />
        </mxCell>
        <mxCell id="juLNzmiUpROk8GgBu0bY-10" value="" style="html=1;shadow=0;dashed=0;shape=mxgraph.bootstrap.topButton;rSize=5;perimeter=none;whiteSpace=wrap;fillColor=#F7F7F7;strokeColor=#1CA5B8;fontColor=#6C767D;resizeWidth=1;fontSize=18;align=left;spacing=20;" parent="juLNzmiUpROk8GgBu0bY-9" vertex="1">
          <mxGeometry width="294.2307692307692" height="30" relative="1" as="geometry">
            <mxPoint as="offset" />
          </mxGeometry>
        </mxCell>
        <mxCell id="SlyIsPCOQQtWdnnoQ8cz-2" value="Upper Wearing" style="html=1;shadow=0;dashed=0;shape=mxgraph.bootstrap.rrect;rSize=5;strokeColor=#82b366;strokeWidth=1;fillColor=#d5e8d4;whiteSpace=wrap;align=left;verticalAlign=middle;spacingLeft=0;fontStyle=1;fontSize=14;spacing=5;" parent="juLNzmiUpROk8GgBu0bY-9" vertex="1">
          <mxGeometry width="147.1153846153846" height="29.999999999999996" as="geometry" />
        </mxCell>
        <mxCell id="SlyIsPCOQQtWdnnoQ8cz-3" value="&amp;nbsp; Lower Wearing" style="html=1;shadow=0;dashed=0;shape=mxgraph.bootstrap.rrect;rSize=5;strokeColor=#82b366;strokeWidth=1;fillColor=#009999;whiteSpace=wrap;align=left;verticalAlign=middle;spacingLeft=0;fontStyle=1;fontSize=14;spacing=5;gradientColor=none;" parent="juLNzmiUpROk8GgBu0bY-9" vertex="1">
          <mxGeometry x="138.46153846153845" y="-10" width="155.76923076923077" height="40" as="geometry" />
        </mxCell>
        <mxCell id="SlyIsPCOQQtWdnnoQ8cz-6" value="Input text" style="text;fontColor=#ffffff;fontSize=16;verticalAlign=middle;strokeColor=none;fillColor=none;" parent="juLNzmiUpROk8GgBu0bY-9" vertex="1">
          <mxGeometry x="8.653846153846153" y="80" width="299.42307692307696" height="29.999999999999996" as="geometry" />
        </mxCell>
        <mxCell id="SlyIsPCOQQtWdnnoQ8cz-11" value="Length" style="text;fontSize=16;verticalAlign=middle;strokeColor=none;fillColor=none;" parent="juLNzmiUpROk8GgBu0bY-9" vertex="1">
          <mxGeometry x="60.57692307692308" y="70" width="299.42307692307696" height="29.999999999999996" as="geometry" />
        </mxCell>
        <mxCell id="SlyIsPCOQQtWdnnoQ8cz-12" value="" style="dashed=0;shape=line;strokeWidth=2;noLabel=1;strokeColor=#0C8CF2;opacity=50;fillColor=#009999;gradientColor=none;" parent="juLNzmiUpROk8GgBu0bY-9" vertex="1">
          <mxGeometry x="60.57692307692308" y="99.99999999999999" width="207.6923076923077" height="10" as="geometry" />
        </mxCell>
        <mxCell id="SlyIsPCOQQtWdnnoQ8cz-21" value="" style="dashed=0;shape=line;strokeWidth=2;noLabel=1;strokeColor=#0C8CF2;opacity=50;fillColor=#009999;gradientColor=none;" parent="juLNzmiUpROk8GgBu0bY-9" vertex="1">
          <mxGeometry x="60.57692307692308" y="149.99999999999997" width="207.6923076923077" height="10" as="geometry" />
        </mxCell>
        <mxCell id="SlyIsPCOQQtWdnnoQ8cz-22" value="" style="dashed=0;shape=line;strokeWidth=2;noLabel=1;strokeColor=#0C8CF2;opacity=50;fillColor=#009999;gradientColor=none;" parent="juLNzmiUpROk8GgBu0bY-9" vertex="1">
          <mxGeometry x="60.57692307692308" y="199.99999999999997" width="207.6923076923077" height="10" as="geometry" />
        </mxCell>
        <mxCell id="SlyIsPCOQQtWdnnoQ8cz-23" value="" style="dashed=0;shape=line;strokeWidth=2;noLabel=1;strokeColor=#0C8CF2;opacity=50;fillColor=#009999;gradientColor=none;" parent="juLNzmiUpROk8GgBu0bY-9" vertex="1">
          <mxGeometry x="60.57692307692308" y="250" width="207.6923076923077" height="10" as="geometry" />
        </mxCell>
        <mxCell id="SlyIsPCOQQtWdnnoQ8cz-24" value="" style="shape=ellipse;fillColor=#0065FF;strokeColor=none;html=1;sketch=0;" parent="juLNzmiUpROk8GgBu0bY-9" vertex="1">
          <mxGeometry x="207.6923076923077" y="95" width="17.307692307692307" height="20" as="geometry" />
        </mxCell>
        <mxCell id="SlyIsPCOQQtWdnnoQ8cz-25" value="" style="shape=ellipse;fillColor=#0065FF;strokeColor=none;html=1;sketch=0;" parent="juLNzmiUpROk8GgBu0bY-9" vertex="1">
          <mxGeometry x="129.80769230769232" y="145" width="17.307692307692307" height="20" as="geometry" />
        </mxCell>
        <mxCell id="SlyIsPCOQQtWdnnoQ8cz-26" value="" style="shape=ellipse;fillColor=#0065FF;strokeColor=none;html=1;sketch=0;" parent="juLNzmiUpROk8GgBu0bY-9" vertex="1">
          <mxGeometry x="77.88461538461539" y="195" width="17.307692307692307" height="20" as="geometry" />
        </mxCell>
        <mxCell id="SlyIsPCOQQtWdnnoQ8cz-27" value="" style="shape=ellipse;fillColor=#0065FF;strokeColor=none;html=1;sketch=0;" parent="juLNzmiUpROk8GgBu0bY-9" vertex="1">
          <mxGeometry x="147.1153846153846" y="245" width="17.307692307692307" height="20" as="geometry" />
        </mxCell>
        <mxCell id="SlyIsPCOQQtWdnnoQ8cz-28" value="Width" style="text;fontSize=16;verticalAlign=middle;strokeColor=none;fillColor=none;" parent="juLNzmiUpROk8GgBu0bY-9" vertex="1">
          <mxGeometry x="60.57692307692308" y="119.99999999999999" width="299.42307692307696" height="29.999999999999996" as="geometry" />
        </mxCell>
        <mxCell id="SlyIsPCOQQtWdnnoQ8cz-29" value="Waist" style="text;fontSize=16;verticalAlign=middle;strokeColor=none;fillColor=none;" parent="juLNzmiUpROk8GgBu0bY-9" vertex="1">
          <mxGeometry x="60.57692307692308" y="164.99999999999997" width="299.42307692307696" height="29.999999999999996" as="geometry" />
        </mxCell>
        <mxCell id="SlyIsPCOQQtWdnnoQ8cz-30" value="Leg-angle" style="text;fontSize=16;verticalAlign=middle;strokeColor=none;fillColor=none;" parent="juLNzmiUpROk8GgBu0bY-9" vertex="1">
          <mxGeometry x="60.57692307692308" y="219.99999999999997" width="299.42307692307696" height="29.999999999999996" as="geometry" />
        </mxCell>
        <mxCell id="juLNzmiUpROk8GgBu0bY-34" value="done" style="html=1;shadow=0;dashed=0;shape=mxgraph.bootstrap.rrect;rSize=5;strokeColor=none;strokeWidth=1;fillColor=#33A64C;fontColor=#FFFFFF;whiteSpace=wrap;align=center;verticalAlign=middle;spacingLeft=0;fontStyle=0;fontSize=16;spacing=5;" parent="1" vertex="1">
          <mxGeometry x="495" y="565" width="90" height="40" as="geometry" />
        </mxCell>
        <mxCell id="SlyIsPCOQQtWdnnoQ8cz-1" value="" style="shape=image;verticalLabelPosition=bottom;labelBackgroundColor=default;verticalAlign=top;aspect=fixed;imageAspect=0;image=data:image/png,iVBORw0KGgoAAAANSUhEUgAAATgAAAHmCAYAAADnS5I1AAAAAXNSR0IArs4c6QAAAARnQU1BAACxjwv8YQUAAAAJcEhZcwAADsMAAA7DAcdvqGQAAOedSURBVHhe7J0HoB1F1cfn9Z6X3klCIIQ0WoBQBAQFQUVFRERBbNhoChZQigULKoqC2LtSVdTP3kAp0ksKaSShJiG9vF6/8zsz577J5r7kBZLw7r37T+bN7OzsbJ3fPVN2tqi9vb3bpUqVKlUeqjj4qVKlSpV3SgGXKlWqvFUKuFSpUuWtUsClSpUqb5UCLlWqVHmrFHCpUqXKW6WAS5UqVd4qBVyqVKnyVingUqVKlbdKAZcqVaq8VQq4VKlS5a1SwKVKlSpvlQIuVapUeasUcKl2i8qWzA2hVKl2n9LpklLtdL32je9wq9eudXtO2NPVVFW58opyV1RU5IrFyfPmurq6XFVllcY1NDa4Itnmxz/4ht84VaqdqBRwqV6S3n3ORa61rc1VC8g2NTS40tIyN7B+gCstKXGdnZ2aBpBVyfoSiQNwgK67u9sVlxTLcpssF2sa3KZNm9zmzRvdjb/4nm6bKtVLUQq4VDusN532bjdpn8lu+XPPKaQGDhzoysvKnX+Qul1bW7vrFiutvLzCjd1jDwVXiaR75plnXElxiYKuuLhI1pe51tYWCQvg5F9HR0cGdlh26NprPqt+qlQvRingUvVZH//01e75Z59xQ4YMdrU1tYKy7i3AhmokHlEN3bx5k1hqTq22duAlIBN6uT3HT3CrV68Sa69Urbny8nK3uWGzwA/QSRLxsf7axDJEzU1N7lvXXqXhVKl2RCngUm1Xp4jFNn78eIVRaVmZGzp0aFgjWINg4urq6lynQA21trS6ru4uv06R1e0qKird+vXrBVxdArYSBd3gwUPc6lUvqCVHFdbUsHmzWnT87xLQtXe0a3xTY6O79uuf13CqVH1RCrhU29T5H73MDagboBbVyBEjFVr6T56aqqpKV1pSGlJ6sQ7QdXfhd3qrTGCG2sSSa9jcoPArE1BSlcWKGzCgXqHXKNVS2u5Ij79JQOerr2LFNTfDRNck1hz68hc/rX6qVNtSCrhUveqij39GqofN7oADD/R2mFCtqKjYtbS2KmwqKyo0rkQh5601AIf1VVRcpFAEdIRRR3uHt+wkrqW1ReM8MH2Vtlqqt20SX1NdrYCjTa5J9t/Z2aHQ85ArUquOY/jSFy7VPFKl6k0p4FJl1ScvvUosqkY3dco0AU+1ggjAQDoAVllZmQkDJ4QVBuwUZwIiAAXkWE9nBGk1Tpa7pKqqACSpphcLTyw6wEUVuEugVi5WHukb5Dg6Qxse7XFAjjxaW1rcF666hK1TpcqqFHCpttKHzv2EGzRosBs7dqyrUCsNC4shH90KNpbpGEBYclQzEQ8SIIJWWG2AC2gBMsR4uHbtOPDWnTx7vjorGQItANYi0KIqWyfVYiCHNUcHxWaprnZIfFsb1mOx349sQy/sVZ/7pOafKlVSKeBSbaFzz79EoFLj9pw4UcFTISDrEBhRHdX2MHFYZJWVFZpeAVdSJiHa5bo1bZdUQRkWUilAA4ZNYvkRx9CRGrEGGxt9OxrgUsipJSfbFJe4MoFlk0AOy62svEJA1u4G1NVJPl2StsM1NjW6xoYGPRYD5/r169w1X02Hk6TaWumrWqkyOvPsDwuAatyYMWNpHFMLDJBQVSyR6qdZasANGLGMhQfkABpWG8NG6BXFAUPi6YigBxbRplZXV6vV2QoBIHmVlVGtZfCvVFvFUqzRzosS1ynwc0UlrlmAx36wHgfWDxTrcpCmZ5wdlh+9sRd8JO10SLW1UsClymjs6DFujz3GSahbwTZo8CC1yjDxseCAEpYVwCsXKJXJsoGL9Fh7dCKYWAeAqqoERLIeEnZJflhetbW1mkeVAq5MYSlGnlp6pK2u5lUu5zZt3CDQ6xbItapFSFrJyFt9si+1KiXhiOEj3IUp5FIllAIulerc8z7pRo8Zo69OYVkNGz5UqptdCjfGn/mG/W59JUs7DELPKKBhHW8nKMCoigLF0PBBvFqAkp63F8BlJ5ATS410WGrAEwuRNjbtgKAKLNYZ7W+Arr2907W2+cHC1QJL3pwYPGSIwLZTLUYOEtCNGDHSffwTaVU1VY9SwKVSARveHMDqGrfHWNfa2qagUQiJdQWY6AAAJLSlIcDm19N7Si+pt86Ia9HBvmFdabGrqa2RbbH4isPQD4aFVGfS0PbGMqIdr03b4Mq0+trW2qzHs2btes27prpSqqkDdYwdHRKkAboA1NrlUqVCKeBSufd/8CI3ed8prrmpUS2qFoFJU1OLdgA0NDRoexpQ4m2D4hJf7QR03pLz7WxWVdXOBuqawdchJLJYKmmw4thWKKXWV1tbh1pmOoyEPAV+HR0sd/vOB0lTIRYaAAN6WJSrDXJVlW6vvSZqNZmhKRw3IB41cpS79FNf8IeSquCVAi6Vmzp1ho5xKxZITNhzgmtqblFLCPBgJWn7mEDHIATwsJYAF5aXQkscVUmtovJP1rF9W3sHyVTEqS+O/GnPo1eV3lHi6DhgGqUWORaA1i4OqDIkRWwzrb42iWXI8Wmbn1Sl2S954dS6lH90Qnzs41fqvlIVtlLAFbjOePs5rrmlWQf1AjAG2tJrSWcBg3Gx0hjLBqw6OgERVhl/eYm+Qy0xwIVVRbsaYGqVPEhP9ZP17bI9PlVVZaFsi0WoEJM8ABcZ6tg5SZDJT/anVVgdPCzHJhYm7XBr123Qqinw3WPsHnoeJQJaqr0GO8KpUqWAK3AdeNBMhQftaoCtqblVQQZYnnr6KYUNUMFqU8kygOsQaw2QkA6fqiYQs6okG9Jmxzra0wAOVUk6HdTiE3kgeQfQOA7WiJGo27JvtuedV6w4fPbdInDbsHGzgpH2O7YFqJJc07HdoMGD3fvO+YjuJ1XhKgVcAYthFQDJm0/O7bvvFAULcTYbCD2gQEbpIQ5AdXX76ivtb6QBgFh5ao0JHEmfgQ4+EJMw5CEb8iCkL+RL2tramgAo+Sfwq6ryr4YBXaBJGqw1qqAdbQwC7nQNUk3dvLlRD2rM2DEKPoQFypg5idahKKkKWyngCljr1q/Tqt7adWthj4IESHV1dEm10reLAS+A16mDcH0VkLY2jQc+AULM6stYNdbRg0o80AFchBVY7JQdiYAVearFF/IhjVpwmsKpRUkc+2SQL9swDo64xuZmt5HXt2Rb2gWBIfF+va+eMgD4rHd+SMOpClMp4ApUx5/wRrf3pMkKAyqGgAjYWZuYtXEBF7Wo1AATYOECuBQq6vwybW8MNaEHlNezFH5ivSnAxNdthG/e9+AClPa6VuxIg091mWOiN1fXSfp1a9fonHNUfbEcQae34jxUgS1WHFbo6NGjwxmnKkSlgCtQ1Q8crJbW4kWLBBwdUj3dV6t3AIXOAqAyeNAghQ8QJF6hYXADUOJrdRZfrTjAJlachHVmkNAbS2+pdz4MkIhXSy9UXw1qBinyB7IGT7XwJEwvBUNCWM++gJlafaFdDzHejn2QBnvxjW86w69IVXBKAVegAmpYT94i8xYbgFMrSaBz9113KhwYqqHQCRYYDnBgmQEd4ltlW4CoL8lLevIFPMzEu3bt2gzAAKeGpQrsLTvfXsf+dJl9AaVwTKzbuHGjWmIKQHzZhnF3pGXw7yYm0BTwAbgxY0brtoRJX1dbp1Xburp6f9KpCk4p4ApQ0/c7WCGEpSNEUMBgcbW18joU1hsvuTMMRJYFVAy4BUa6LNAChloVDR0L6of4xqYmTUcYyCnQ1Am0ZD8GSc1PnFp1AlsmsdT14hDWonZcyDo6PoAbL/gr/BSA3oJsk/Tkoz2wWHFCZQ853wGCGzVqlOaZqvCUAq4ANX36gW7KtP0EEL63c+q0aQokQIHTwbkCCkClQBJqaK+qbNsh1hdAZL1ZfzhW4mPF+TxoV+sBmrfemEapRPMjjXZKiN8qYK2qqVarzMbSkTf7b+S1LraXvDo4XjkGQLZ54wY5Btr92nRCTI4PKo8aPcofD8cq+dCTyjYnnnSKxqUqLKWAK0CtW7dWLS/fLtbTqeA7AzrdjNEdrkIntux21TU1GldVTUcDIANuAi31BXCCDxwwIa83HTnOnXDwSAVPvA9epPfj67z1hsNCw8pToEne2m7GP/IHauKoNrPMvvwYNz9eTt+kEJHnps2Nui9ZqfAjDcK38JSpM9RPVVhKAVeAAgp+WIWHAFVAGvyJB2ZCCa0OegtNNiCd/KONHyvJ2skkqKBSaMm29GqayAcLTCFD9ZRtdTu/ng6Jtnb/Qj95qLWnYCMt+/Vp9Y0HsRr9Ot/jq1VR8VlP/h3iAGXIWmVgo8o7ePDgzHKqwlIKuAIUoAAiC+fPVXDRwE/bW2enB0uRsICX3rUtrS2AT9eL5RUgSJuZwpAcZBuqtVhbJmsjY19r1jLOTkgZrCvgyrZmMWLBUVW1HlPylIS6zqq65WUVCisDFcdt4ji1mqrbOjdmzJhwbJqTbs9m513wKY1LVThKAVeAUhCIEeQtscjakn/TR7UpqGgry8igQnoNeXCoLwHyU0tOAMU3EoDiSbNGKTh1aIeIdX4rwOctLvZP2ECXsbokzof8pwY3btoY9u2tR+w3BveuWf2C7p91LaG6q/shUmCq5ylBzo0X8FMVnlLAFaAOPvSIABH5J772XgIFleADgoSgAkQXLL1AK8ToShEgoT3th9/6vILFMiCth2i3vrRPct8u56dColr8hSsuFCi2hqqotxDVF9fcHHpkBVzetbo2SUt6LEJvmZG/5Bvy8+11zo0aNVItQ47V2gtxqQpLKeAKUFhLVDcbGza7w444UquSxiymL+ohHAzzjf2shg8KiQAKbyF5cDCH3B9u/K5uSd6A7utXf0qBxvb4aiVKWh0a0uVnAkYKH/H5kpZZfEjhKD5vRZDGv53g49gW687y4FjowVVLkBT8l7T4zPrLemYeOfe89DODhaQUcAUoCruWffnDx5hp/wJCgEcl60hgbWIGCsABf7D+AA3Yw3VImhaxsBQ2uq13f771h/q+qc7TJml89dEDiTY74v960/c0T32flDxlAd8ceSpIgzQc0ldX12ic7pZtJZ6ByYQ1XhzDTshD2wOx5PTgUhWKUsAVmD7woY8rnAwgFHprkD9iH/8NVL6D0BQG7OI3NjRqFRQYUr3UNjOsMFlmOEhTY5OHI3lKPjiqmIQAEm79hg0KL8LFxf7rXEogdihSK5EweeCFON5c8McZjpl/4gO1uJ3QQMhx+lTOjRw5yucr/154YaWeK/mkKhylgCswaeH3NUt1tGPhUIfAQSenFHBh+QCMmto6tbZ8tZbqaugdpd2uEwuw0zUL5N54xFiFCq9R2dRGgOiaL33Kg0lB46u7WIzkzf7ZH7MCAx7Nl7QhPUCEgfhWPWU73m6wfX3l8x9TuDGsBenbEx3+BIEgCSWo1VPy4WPWfNg6VWEoBVyB6bHHHwVxCgjogaXlezC9JaevTPHGgMIk9E62tkaQ82loQwOCvKJFryvbWEeCz1/+SZ5/vPE7CiUa/HkVjLFvLa0tAaRtAjKx/IL1hcWIzNKjR1a/xCWZ4hA+x1zLt1VLvCXogQrN5IEW0PnOhR6R3p9PALmsT1UYSgFXYMKywvq6+Rffda2rFmdel1LICQA8TLCsxBKSdKzzY98Y0MvYNOI86FjHgN3rvnq5307A5LeHcko6BQ3VRgWj5M/2bMMHaF63/yCFnE2xxHbMAdfa5mcJoXqKu/WXN4Rt/SwlpCcM09727gvVgpO96j99JUy20eOQffMeKmmB+bJlSxWe/qhSFYJSwBWapOBTFRwy0n+93tqkKtfPcc1NTfpWg8INoAgs1FoTKD33/HJtZ1PoBNAAONwfxErz2fTAA1jSTqeWmqT3oGS7Np0hhPaz1rAvhP3lq5QekIAQn+80XHjaSZrGx3dqtZl0tKlRncZ6w4or0YkvJQ15ADIOxRt2urzXXnvr9sOGjZBq6if9ilR5rRRwBSazdhBDO4QFqsVPPu0efeRx99gjj7l5c59wJx+2p36IBkuKySa9a1QLC0jxFa6mxmb3tS98MuThM1IICcz4WPTK5cvdkoWLXH3Lki0gR9WV9rOFTyxwSxY/qdtpNTVAjQytWsmrWd+87S/qa7xuDwT9voAcParqQtsfUPZgI5HmLrCmTa7IPfPM05mqaqr8Vwq4AhLTeftGfL9cMXKyDwgNxowa5spLS93GDZvd/CcWub/99Q63ZMlC/WTgsqWLBA7FGUDZq1009mO9qchTMl79wgvugXvvc7++6bfu1ptvd3fecY9bvHCJWnwM5m1sbBJQbnazRne6vSft5caN81/FUrCJvOXo8/fAKnGXXnGNrkNYhQAKC7FNAS3bBSvNVBZeymd71mknRPg4jUKR7Y18qfJaKeAKSG9+y9luyrQDwpJzzyxd6G751ff1jQEmhhwxYpibuu/e7qTXHOtOO/V1AhEnVtjzAsYKBYK1wVlvJu1ZzQItqrYMJ2nY3KAwGTFiuDt01oHuTW880b35za9zrznhWPf9674QwOLcTT+9zpWW+W+aQiC24Z8fauJ7drHyND4ACsluXVVNjUIKCJp0a0mDFYc4Vq2iShy9q6PHjNH80PgJe+qsJFihH/jwxzUuVf4qBVwBCQuO9qt//evPurznpKluVHWwZMQyW7tmrTbcN2zc5BrFHbfvQIFOuxCjyx21T4175umntcfU3ko4akqtQkc7F4CSAIovmNbX1rpKPv4iadqlKtsqAP3u5z6mcFu9apX75TVX0lXqiSWxX/vCx8Uq5GX9Nu2xpRq8QsDKPn53648UcohqLa9rATheyzJZ1ZS2OP5pL6wemDjZtjQMIQGwPPDPPvuMGzNmrKuoqNT4VPmrFHAFpBUCF7Ru9Qo3fMQYV1lV7UqEHj/93le0ukc1cvOmzW5zQ4M6oYRbtmSBO2bvOvfC8hXugNFAiRyiCp5AxFtwjWLBbXbNst2m9esVbkBPTC23bu06t27dOuXNjT/9pmuhM6Ox0TVLdbVZfJ8NOfo2NToC+JAz1eLXnXaOdiCwfqNAFytPh4nwqUGJw0KjwwIH5IAglhx5sI3ly3ZYbbzeRfuh77Xtcmec+X7df6r8VAq4AtKYsRPcz39yvYDAw6Cyiupel5u1755q3XQAAIFPh1Q78dsaGt3QrvXuwcfnKbC6BBKjSldqXoADUOB8hEb6qqH4TyxY7ObOne8eePAR1yrQbAOYkuiz7z8jDEERAImjQ+Dbl/hP+2nVVzanisrXn//vNz/ReKDE/uJ3T1mmPZBe1m9897u6bCJe2+HCMpYrW5GG88bCw5KtratTiy9V/ioFXIHo9LPOc3UDBijcTn7DW111jf8ocnv9BO31BGgrnl/hHn58vnv6ueVuxco1AoYSd/DEPVyzAOo/9zzgbrz9z+5Xv/4/tYTGVa/T7a36+Mhjs90jj89xj86e62bPXeDa6GUVi2t4RZlrkO2feXaFW/fwH92ixUvdA/c+4OZL2uVPP+U2SrV480amQ/JgA7SIbGcd8zrNHzBh2dGjC6A4djo6tMopICwRgJm0nU/SexciJbcJEyYI8Pjnxfo995yYWU6VnyoSUz29x3muT17xdXfdNz4vVk2Fe9ObTneLlixxleFF9TUvLHcVG55yq9asV8unoc1/Rb4Z60jWTx49zA0ZUOcOnDbJLX7+BVdRLdXa8jJXLFXCM99+mlu6dKlWRfXVLQFlp1hZHQK3ovZWt3zlardg2bNu5dr1buWaDa5d0lSUl7juji5XKfAcXFfjBtZWu5rqSjf5te/V/W3atNGtX+/h2aas63ZTJ+2tvbkvrFqt1VNmHSkq6nYNdHDIvv77wH3uvHe/R607elcRr3YxmLiq0rezMabvySVPurLSMrdg4Xx37CuPlzwFjqUl7sZf/cz9+x//p+lS5ZdSCy7P9e4PfMJd+5XLxEprcyed+Aa1ajZtWr9Fxax10AT3QlOrW93a4ZolQUlnnRtYNMQNKB7snlvR4R598mn3wNxFbv9JE9zQAbUKESwgNHHiRDdxr728KUcPhaiykvdGnVv4zHL32OKn3Lzlq117e7Ur7qpznS11bk17h3te9jfnhXXu7iXPubvnMYyk1a1cuUJ7Yzdv3iTAXeXNODURu9269et1WSEm/xhGgopl2XpPqe5yWOoAnQT8UXpp9VTiJu61txMca0+stwL9cafKP6WAy2NVVFa7n3zvK661pcm1NjdquxeFfNjo8e6Flc+51eIQsIJNH3jbWW5U+Rg3uHaQm1w/2b3lDWe4IfVD3Mi6Ce7Io09yT69c58rLSt2eY8coaExsP3Hinm7C+AlSFRzvho8YQZenGzVypHvtCSe7vQft7V4x65XuFZOPdkNKh7iDRs5004ZMd+987WmCGec2Q8OgNQI22gVLyypcWUmpwscPCfE9pDW1vmptVdkbf3KtWGFlvmoqyyCNdjnAWKTtbX7cHM73/vrXwtTiJF78YcPTzwrmq1LA5bEAWyyzusaPHKGwQK2tUp0Uf8a4ke6eRx52NVUCkK5i19Hd7lYtW+kq5J/rkMekWKpy//ivqx3AR5QxkYBisXDEHiGDikCptNzVDx3uZs461LV2d7rOog7X1dzuiruLXHV5taQsdgPrBwu4it3Xr/qSu/ZLXwl5iCTfYaP20Gqy9Y7y0RmO/Ic3fMl9+9rPezBJvjB27PQj/XYiHQsn2yG13Thf/1/jfRVW1ojz1htraPtLX77PV6WAKyABOOCA9hgzVgs8opiPGT7M7VHj3MCBg11ZUYUrr6pwTy9b5rpbOl1VSY0bNHSw+/mPfuhKq6pckVhWEyeM020R7XHKN7GciktLXFllpSuvrnHrNmxww0YMd/V19e7pRU+5jVLNHFBb5zqaBVgCt0FDhrqaAXWuqja0B65e6YYK3CAXM5Mw5OP2X92gnQsbm5rd6e+9WNMh4Foq+zWoATTOz58jEPPnRbzNNALw+Kfj5Myyk7jjXnW8O+7VJ/s0qfJKKeAKSGrBhbKOsI5MT7ZWa0N+6cBuqWru6UrKS11RZZGrHTrQDR8zwo2ZMFbHpu255wQ3Y8Z0t2r1Wl2mkZ7tyssrXJ1Yd3X19W7QsGFur30muVccdaRYfLVu/N7jXJfk1VHc5YrKStz4sRPd2NHjXHeZwEeO4bn7/q7wGTFW9gvYBFhmiZ3/savcrTf9yFt04g591akBZM79/e7/aTrisUgN4Fh39Lrq+UI5kW4D28WKJI1NpU4VFUjqgOZUeacUcAWkJxfPV+vFXmSvKi931dW1yjwa+QfWVLlJAzpdY+UGN278cLfflH3cuD3HusmH7unKysuc27Q6WExURXtISRzL6lNtBTgKHeeO2G+y22fG3m7v6RPcgFG1bvDwKldZX+Tay1vcqD1G6swiE/cY644dKVXYkMe6tau1/Q0Ar167xp1w8ttkWaqrmq9/p7RUwErtuLKyWtsaL/vkhzzglGLIkw1LkCCs03F2ar0Z/ACsHxdnQE2VX0rvaoHog+dd6krLynQSybb2Vrdhw1pXJdVIIMLHZ2jMHyRVxaEDB7hhbqNbU7bJjT5gvJt22L5u5sRBrnTTKldRUSau3EMs8A0ghZCCs7RMLL8APwbyVpQWu6OnTXAnH7mX23P/Pd3QvUe5cTP2cAceOc1tmnu3K3l6tqurrXV/eda/isXsvuVynFQ/gRo5cWxqXeoL80x5Xuz+8+CjOuElYY5hxtFvUoDpfgGZwsxP2cTwFzoWmGyTueYYx0dKIKyDiv1mqfJQKeAKRDTTM3QCCweLpaqqRgEAUOoHDVFIMPX4uNEj3f6T9nTH7z3YjS1e6/apa5dq5gBXqmPfihU0VE2BgrItwEGRFlgX8KbrscrKZdtRo0e5I8ZXuwNHdLuR7c+6+jWL3LTJk9z4cePkWKp0K/759OVu2LDhmseTi+YphHGtT/xbj/M7135W8+Y1LQWhpMe60/a1ADfSZeAr58xkl3Qm4O6842+6L66DvbTPtUiVf0oBVyDCqqmrq5eyLlXU8OoTKi0VcIlFhlUDEMrEAhs6bIgbOny4qxs4yAltXLHEKVHkP1bTAw8+5PbZe6Ir6vZQ0n+yfuWKlco766n08rChI2H46NFu78n7uOkzZrhJk/Z2w4cNddWVlTqrL9VNLD/2TxyWWVmZn/YIi45Bu+yfNAced6qs9x0MvMWgY+FY73enjjjWsz0Qs3FzAA6Y6RCSbm/dAUYs21T5pxRwBSOxWEJhp4Cbw4LT9izhwx3PNUEQzC5XLPFFYh2xwqNDthVIAAyWDzrwIAWJX1vkVixfoeGiwDXdhvawkF6lICrWjgltG2On8v8Py32nAlba+rVrwzHReeABpcsci+StL9eLqxCrsKqq2pULoFkHeBWskt4fo/yTvIGXvaDPuQO0Z59amLFkAR7pU+WnUsAViIAZ7VeZ7xXgJH7+vEe17Us/1tLR7p5fvdYtX7POdQs4uoGKgIcpwNXqgRiiEcOGKWy8U5TAKTdu/HhWZ+Qh4yGlJFN4lkh1WcLFpa6xudWt27BRLUja9YBW/YA6N3TIEAXWg/ff7fY/aJa+yoU1d+Md9/UcB9sIAIFleXmlti+yH9+JYJ0G7JtvpTIVk29744V9IbfmYdVZHOlS5Z9SwBWIsI6wYCj4OA8rsXQkXCHwIO6ZpQvcI08uU7Ctb2hwG8Rt3LTZPS/WGbP5btq0yW3e3CCbCQ3E0RYHJpc/v1xZxx8DBa9NeXB068eY+TB0i8Club3DNYrfIMARM839d/NAbT/jeDauX6eQsx5ZrEja5zi+Fffd7t5w5vlq2dEO6MfBSVrxGWriq7P0lGpro54vPu+g8jUvs1h/fcvP9fj09PH1LwcdDjxVXikFXAFpxv4z1afQq1Ul/wcPHur2nTLdDQodDcvLx4pRVuSeFahBAXDhaeDdnLnz3Oo1a9369esVYMufe17yytYT6XtVqRJiBZaUl0NZhZqYW65bgNRF+5/CrdhVMo6uusYNGjhI4XXf//7rDp51tBtQUyObCHA3NWjaEoEa7XTqtGotIBT3n9//WM+J0yIdcANozHHHy/Us86lDzqWotFKOzgMex3lg3aXKP6WAKxBR8LndQACAqIIV49u8wjdGpbr6r2f5Kj3vgIIFSST/V63m5fciN2P6NPfVH/7Kzb7/AXfXP//plj21LGTuCectwyKx+Np12272JcChalosUOsgTwkDuf+uAE7drkz2Obh+gFhrFbo9FhxV6aqKMldVWaHW2Nwnn9K2N76KX1JSrjOjMO05caueX+Y+9dlveOtNjgV48cEc2gypmvppmLrdn++4S88BKQBDPPtU4KfKO6WAKxj5AuytHF+o+ffsxlYF3N6T9tX1vJHAMI3nX1jtHnx0tlu9Fmtto34/ddWq1W7hosWa7tE589yjj81Rd/sf/6pxgG2zVGP5ohZw4VuqLS1MadSi05ADm83MFtLU6O55vsvViHVWXVXjRo0Y7latfF5BRhX4umu/5A485AgdB9fe1uru/c133fLOan3Rv6pSoEabIccfYMjxx4DCcuN0+Vg1VWtgxjg4thswaqLrbmfiAT+bCE7IKMfMhJyp8k0p4ApEVBeZSeOppYtCTIBdW7NWARkjN2ToSEGUt+hWUFUFGv6/F8acQOUbn/mEO/aEV7n3vOds956zz3Tveefb3cDBg3Waozht2ECessgXt6BxoICqStvehgwcINXcZxQ49HbecvNP3RlnfVAH/zLtEm2Ed6/2jylDQXBUTek5BYjPL1sg1dUyXx0WB1TZFd92WL9hg/vfvXe51atWuv/7yx/1PKnaDp90sO5L8xQLE8hFfEyVR0oBVyBSa6Wz0zWL9WSiYZ43D1B1lQBHgAE46FGlF5NSv+wZP6VSIJZ6mxsa3MAhQ1zNoEGupr7e1dTVCTzKMjzzsoVi98AzHe6B57rEdbuFDfUKGlxtTbW777671borq6hwN9/0U/eGN79DjqXS1ck6AHjND34csvMZ077mQeXziKvXiPWMq2sSy/Hxxx/Rc7jrnrvp9ZB0ZZKetzFCVVjz9G115RXlPoNUeaUUcAUiijKuvWqQVB/bdfQ/1bvGVU+72279pauQ5ZNPebtUA6Wgd/Nh5hL3p8efcStXr3FPPfOsW7BwsVY7abNSdql1J1VdcVT/9C0HoCiyavDatWtcg1T9pg5pc/fe9W/dP9bXD79zjfv+DV9zd//3TldbWy9pmt1vbvulO+W0d+qgXiw3DKqrv/t9zQ+xLdIxbwFq5MU4OKqeCGCxjDVI5wLLj8xf5HtlBXxUvXHM8gs8sd44zmu/dpV7Yq7AMFXeKQVcgch3LBQJDHqsnYXLnnK1g0dm2qcABlU4YEd7V0VVtZu9ukOnHqen9NHZ89zSpU+79bK84YUXXMPq1W6z+O1NTa69ucV1ST5MX84XtNatWy97MCw5d+ZrDnITKte7hx74nzvo4CPdATOPcH/6w43uFz/5lls+9063/NklCq/KcoBV4r72/R+FLb3e/e4P6PoKAWC5nAMfqfbWW4k7fNYR3iKTf41NDWoRLpg/1z3yxEI9Xx1KIusBW0017X5VEueHlPge11T5qhRwBSTAUVtX61Y1+amBWjZv0CpbR1GpVl/VIhKAlArsNm9c59pbmxUQj6xocS+sWafVRuaB23vkKFfyzAuu6e5HXdeDT7j2ex5xXXMWOrd6rWvb3ODqpdo6cNBArQp6S4sX6Bmn1uX2GdjhJg/qcPsObHdHHzTdHX3gdGqJ7ryPXum6xLIEVBwLAkwmhZlabwzs9RCukapsRXmFY4AywzywFltb29w///YHt3TFKjmGQerGTpzsxk6Y5KoqKl2lHNObTjpRjkUyDWTDwkuVn0oBVyCiKkZj/ICaOgGD/zq8tV+teGq+9jZizYwZOVxAAkx8W5VvuxKrj4Z4cS9IlXV5w2bXWFPlmgbVuLZh9a5zzAhXPGEPVzR0iCsSK0k/J9jY5AEiDugQeFqqujp+TUD1n/sfdps2N4prcPsf9xa1qPhT8dT97vovXsIhbylN0O1KxNPqsRzLI/f9xx1++JFqJ/pxbN3uHwK358Wq5H3WarFAOdeGDWv1XMrFAbjPfOo8ctTzveG6r7hnn/I9w6nyTyngCkQ//cE16k+bON5tXP28K62u19ecnl86T+P/7/e3yV/f8N7S3KRVVjobsPporyrb60i3YpWvqt7/+Bx35/z57nePPebuWPiEu2vxArdk1Qtu8bJl/oPRko++AtUVBtBKeNHiJ3U//7jrPvePu+9XwALMo04+2w1ZNccNWT3XDV49x1tTEAsp1Lyw3uh5BdLMToIlh/XG8bKPf//9j+6uu//rVq1d5/Y/5ChXLVVROjEe/s/vpVparRYfY+qa1i53n/ni9bodWrXiGfVT5adSwBWQtJ1K3Og9Jqj1Ri+q6amlC8T+8YNktQFeHLOPdLS1qgVHm1zd5GPcxk0NOih3+tTJ7vWvP9EdMOtQN+uIw93oMaPdKHHVNViH5MhAYb6bUOTmz1/g2lpa3a3/9ze3YeMmt37DRnGb3ONLnhaozdU3J2SH2hGAbwJBVFPPf/e7dP9UoSulmgnk5jxynzvuVa9xLS0t7m9//p0bP3mGTm1+xNHHi/VW5QbWD9RqMWIbqt4Nq55zTc30IvuBvZ+97Pxg+aXKV6WAK0BRRVw07xG3bOHjIcaLsWNYaCNGDFerCyuus5OZdgV21VUedBMOd3uM8uPleAe0pKJc54qDaWoV8Z+VVCdlu3lz5+n0TLf/7d9qsVUIpJ5atda9+zWvdJ8581TdBrD5bQEw24rwZWH9kw/6dQpf2af8YbZf2gipCjPMpKq23i1/9ilNw0BlHUAsx/vP3/v3TkeO3sNVSpW1sbHBLXriUe1cAG58YT9VfisFXAHpe9d/UX3awehVTIqBscAEgAwfNlwAVeJefdyJWk0dXF/v6mv92wQPPN8u1b8asfDqXH3dAIFJtVhu1a5WlmtrcbU6UPeJefNcieT71zvv9mB7YY374BtOdN/48NmuXqzAohIBmjgG73I46gtUP/bO0yRc4tYvflCPC2uLXmA6PDjuv/7fre7oV73WPXD/PdoD7GcLaXGDBw3RYwV0t/30m7rt1AMO1+rs0vmPunmzH3CXff5b7nOXXZDCrUCUftm+wPSB8z7l1gjIfvPLG0LMljr7fR/VaYoAziukunf3f//pOkur3OmnvVXHl/Gq1dLFi9whY8rcpMn7SLpisZiqdVuqjliA9917n3vm2efcw3Pm67TlH3zTSQopFRnzX/xNmzfrsrfeqKLqCl3+xPU/0eSf/dINflLKsP3tt/1C30Otrqnz75lK/OP33+GOec2pbo/xEzE83a9+8FVNi95w+jlu3qP3uSWL5ugy4/9SuBWOUsAVoCbPONgtnPNQWNpa7/vQJ3QyybkLFrhlT853VXUD3fyH/+M+I7ChXW3Bgvlq5bnV893E8Xu4YTo/HJ0KAiKB4Nwn5rsHZ89zR0+f7KZNmihPmaxmgLBWMmGZB9nGzQ0SI/+oR2g1VQIBcB//lh8HB+D0pX/J/7e3/kyqoJX6bYWqmgHuoXv/oWnQO875mPwt2gJup5zxATf74XsEbnN1OYVb4SkFXKpe9eo3vMMtXfSEW7rg0RDj9fZ3X+Bu/Mm3NHz68ce4iePGupqqKp0D7pd/+Iv6rzl0f10P4OIHDKApzOTfRrHg1HrTKqoHnL11cPE3vu8+9+UbGA2iPbJ//N0t2nZGlXTe4/eH3LyOO+k0t8eEie5n37k6xDj3prd9wP3pNz/W9KkKVyngUvWqE954plg/T7gl8/v+GtMFbz5Rh4fQoVAkaJu6z15q3elDptZZgJiEN22iihqstmDBsY72t49e8x0B3Hf0Hdrf3PoLybPLLZ7/aAqsVDuktJMhVa9qbtgYQn1XDDDANX/JUwFswQULLTMkJCwDNd5npWeWb596uHW739zyc32z4YnZD6RwS7XDSgGXqldhhe2I9YaGDB7ohoobMmSgB5jIgIbjbQJ9q0AH6frxdh5qAXzECehoc/v1zT91c6U6On+O701NlWpHlQIuVa+6+44/hVDf5S0474YOqndDxDEVUXmlQC3M7yZ/Mmmw1oAcvo8vcj/46wNuSMOTOqwjVaqXohRwqXaqeqAlVplYYj3OVz0z8RnABeCpoxpb7D7wusN9fKpUL1HpU5Rqpwp49VQ7eZe1VMLigFup/9aqhqM0HnTAjWqqb7vTNrxUqV6iUsCl2qnyFlrkFGriFGriAFwGbACQNxS89cabDAMHDvRu0MCQY6pUL14p4FLtNL3+qFkCLyw4s9K2hhrWnMJN44rdIOZsE6ANCmDLVFXl3y3f6hnXlirVi1EKuFQ7TYxVGzJ4sBsyxLsM2IpCNVWAVlFZoS++44YNG6rVUfkjTyLV0gA3wlRVRacdf4z6qVK9GKWAS7VT9PqjDtMZRxRW/BVQDVXQDdHvnQK2iopKjSeN+TqZpgR7el896CzNW9/0OveWVx9FlqlS7bBSwKV6yfrSxefq2wr6uoLCysMJUJXQBkeVNFhnHly6WZBArowvcklkZMX5GUaKdCzeqW882X3ivW93l5xzVtgmVaq+KX1VK9WL1pc/xtTfRfqS/Zx5T2gV9YRjjtRBugiLDAsOSOEyCoRj/jnBmAcb1pvAjbcWdFycpOmUbHrAKJJ8H5092335B7/wy6lSbUcp4FJtU+856VgYpqABXHc9/oR791vfJJaZWF2ygg8tdwvgZs+br3BDasgJlHQeOQEcL9/7r80H8Onf8K0G8g5AU0maDs1A4iSeTgq/jvdbcUyd1OUenzPPffmHv9RNUqXqTSngUqmuu/QihU03Tp4I/RCyQUfErLzAhW+Y6ng2AZBOj6SOL8N3uVHDh+k2AAk48fEaAMd3WAGcWnYBcq0trfJXgCUA022IDNt6v0RftNfxcpKG/NkP+5SAzjO3evUakmr6uXPmBsvPg9Eswutv/T05pypQpYArYN3wmUtcF/OjKSXAjXPMAVJe4dvEAITGC1Q6OzrcuvXr9TsOQAhYAR2ApWGBz9ixYxRUfFm+rKJKgeMB1yGuzXVJ/PpNjZJ3t36fVAJ+10BJD0H+BF/3rZCSsMR0SB4GudWrV2uc9cxmJMfBB2Y0C/LQqG730EMPuYraWveVH9+oa1IVjlLAFai+/emLfQBYCUiGDB2qi8IDt2HTBsXDpoYGDxqJxArzX8gCMpIIqIVqIyQZOXx4ZmZfLC6qsJ0drW7IsOFu1QurtJoKbAAZ30vQjdgLACsucsuXr9BtVcSRkDR4QXzQmeNi3YABA9RKM8hWVQlQNZWs5yQ0ZArLpXzNv9gtXjDfNUr1+Oof/0rjU+WvUsAVoC48483uyMMP88UekIjTT7qoL4DbsEGhoasFCGjt2nViHVUJ0HwbmG8P8x0H9QIb4rQaKvH0nFKNpRMB641tJCfdFZ/6AzgKTokAbkw9rjvWQwBLODxZJ1VZPyYuxImmTJks+5MNAKb8k2dYYovc5k2bxPcfp9F1IY3P3LlaOU4x+Vy3HNPs2bM19orv+KnRU+WnUsAVmD7yjtPcfvvNECjVyZKgAKiJ6+gUWMniho0bFVJAQq0jUsl6PiLjJXHALSwBKqwp2Ug/Mbhq1SoBUolrlTCJxo3bQ605QMlX9HVLhQ4b898fgzqWMmFfLUUGs4z8ak3b3k4aYEZMgJoGuwV4G9Unii/6667t+CU8e84cXX/Fd3/qt0mVd0oBV0ACbkcf9QptSxs4aJCPFEjoA6BgcW7duvU9AIMCPqRf0cosKyAAYpGrr69X0BBPNRSLjbY31vFVruJSPw0Sm+mg3pAfimEmgS3C4QhkPwItoiUPPD5A47fzHR8a0OOSkPh83UuX2U7i2L6xsVF94rw1SVj+y3kAOdZdmUIuL+XrH6nyXhcK3I4SuAEObbuSOCw3fANLY2OT+izrP61GFuunAH1C8ZQNfgEw8JEZ34lAbyp5h3dOwz50iIis1zY4q976TPz26nye+HosHI76cgySjx8ozHKxQLLMlZaVql/F908FaHxsGseybhzSgjhe9udzhgZTOycNZ8bfFbnPfvBs2TZVvikFXAHo/LefKpYbY9S69duncES/Jq8xgAa4Nbo2HXgbRAAAaDoPB7WJWDZIiBRMDN8Q0BHWoRqynX2XoasTcHXrJwV7tpW8JE13Bjbk5eO9D3RwgE2cPqZsG5KEMFIoBum5RI7jJwHHXWOQC0Cz45gxfbp7duUqXf7sB1LI5Zt4clLlsc49/U3umKOP0kKuBZ8CT+eALHhLSqpwDZvV+jKHPEh0i+Ai+ZXa9qaAkWXPDIEHUx8RRYIQr0sa6eGlLgM01omTbX0m3ql1FRZ9Elm2tBolvu4cgIUjlHXeKvW+Lusa35YI5HT7ALfS8nJ9TeyNrz3RPbtipYDuBU2XKn/Ek5Yqj/WKI4/UXkbt5QRuUt4p9L6q2OUaGmifghWh6mhSPhTp1+sz4MIikjj5q+vVC+lYp8NDSmhnk7iMpSTrEr6FbTsfhnEs+yQ+E/7owfljw4We2i2AbOvMyYZaQdZlD7wtJDvQ91+JlzCDm9/4upPYwr33ja/RJKnyQyng8ljnvu3NCjU/fKPLrV+3TpZ9GNe4uUEYgDXXJdXTNsVAa1ubjnfjNSqGefjpjbyj2lisMCpyA+uZuw0geSL5tjcJA5WQRiEnjg/NWMeDh5mPZ044rTIq2GS9wk6TyR89hR5Jvmp9QiE7BxYUcj5s64u6/Zg7Hx+sVTYThxXHMBak2xMrOySUKv+U9qLmqT4kVdMjDztMQUFBLi0tcRvWb/ArBTAr4uqYFHDmbzMgmUaPHhVCogAP/SOuXC0gIKKRAVpkBeQAiw8Dr7KyCrEiwxsTGYKJzBcBPvXFkaP6BJAEfA8sYaqbsrZnU5UiijwkreVl4vw1RuJtTXNjk8Y7YMg/DTv3+z/+2f3iL/9OP1GYJ+p5mlPljT542hsVElgv/n3RLtcuVhnW3IOPPu4eevQxXWfrB+v04FL0FQy6pRZ4WJKpApo0jbfE/CJVUw8yezFeLT16UqnWSri9Q2ABOD0B2dz7CW0Vo+l8EEC2tbWqdckxa89tux9EzPmZlcqxEkca33Pr4/V8SSfrtaou+cpfPTV17EjjnDvzxGP9TlPlvFLA5Zne/5aTtYH98EMO1pfV6d2ksDMm7SGBG+AyGCj8KOzGLyvsnd1u1IiRAQ6k9wVfJQFm41WQmcUXYOXb0CSOWXwD3Ki6bgE2hBEW8maHGk3Qeyrv+/Uexj5cKnnrcQfnh6j4YSgtzU2uSSwz7dHFhXPkfPWcA+TYL29U6HrZR7zPN5782sxyqtxXCrg8E1A5/OCZvmBLwS8RsHCTO8UC0lk9Oj0MrODreDXgQUEHJlL4R42KqqaI+DA+NqMIcOqAGUM6JEyexUBNfJ+3ZuEdwMRyJE9cAA7w6Ukkjjh1Yb34TL/UAzfy8MCSP3ouDE3Bb2oS0IlrFse25Kf71TSyjVZLxQ/AlRTe0SEhgTee/Dp39utfretS5bZSwOWR1Hqj0FOAxYIpFYuqS6AG3HiN6phZYtVFFo+UdjdwIG8i+AJOp0Jra4uAQ+CnDlMrU/y9w+MPBplCzoOOIRcADdBphiFTn5wAEBPnY4IIhwb+AKGM4xyAMDDWOec8yHw+HDpw85C2qqhPy7mH7WR9U2ODWnYKxYxVh9/tKisqNS9V5rAi6qXKeaWdDHmic059vQLniEOx3qjKifVEYc4ArUPh8O97H3B7jBmtUCqvrHK1dQNCW5kv2OPHj5eyHR6J6MkQjGnZrwrVU7/IH9re/OSWCiY2AkKyDfDYyLutmk+UWSSquyEzVw4kQ1q1/ACRAltgXUqnBqv8OuBFWJ0cA/vW4TDEc3zESz6+msyRsg//0Rt25s+Bl/lbNFskMSo9C9n+93/4o/v5n/8VYlPlolILLg907ulv1OEbR846RN8YKC8rzcykQVVMTDi1ajrFitOqqoAAC0dfYZLCbyV7woTxWvBtKEjG6dousXiAg5fG6no8b4Vt2rzZbdq0Sd3Gjfj+ZXeQ4WW+V1WVwE2398faLhZkW1uLWpJtLViTvlNBxbmoZYcLlhzti7j2Dtfa0qTWaoek5zyxWDs13KJxvLfK+hattoo1p3n4c/J5ypUKjv1wrG84+bV+36lyVing8kB8mg9LiFl4fVuYb//ylosIClHlFNAddeA0nWZ8yMiRAVC+F3TPiXtqPlhzuBKJ004DhZJU57C0sKbEqgIuli3b85rXZgGaracKqNYXvmyr6SQvbZtT3+9XYvX4fHYCFv4BF7aVfyYGIzNBgK+SBqdVULFMqYJrNVzgJkAEaO0tzRJuDqBrc13ic+4Gtlax2nAKOX4A5AD8DwJhf8z859je+bq0LS6XlQIux3X+29+sYDrqyMN0rFhZeVmPk2XiGAOnwBKoAIGR4ycIZHjrwLvi4tLg+6/M63APCfvOgyKtlopp0wMCK/2iisgCwkrEqtK0AVDa6aD78b46iatm5t0AOs2K7M1C02UgZ+1l3q1fvy7swwOOqndHu7fW1EoTqLU3N7n2pgbX1dqigOsO34yQxL5N0QAmzluHRToBp286DCelB4Nz7g2vOzHEpcpFpW1wOaweuB2uywoISqXAwAOAQi9Wjbh2KfBtYtk0ltVIYfaQMeDss88kDxn5097WroVb/0l+5MOgXrPcFEhh2woBw3qmV5J4nTFE00g+sp68SGOQ9DsQyfrysvC9B/YDyNgPfoCKnQPLzCunQMP6ojpKvLgBdbVquTF5JQBrbRaLTc6zQyw4ti2rqnIlctylsq9i8dWVlglo+Ywh8O45tgoBeHNzaIvTY6LLOBxfiDv1wx8jlCrHlFpwOarzzzhFXzk6+hVHSFH09NC/WiIpkwIDOhik6gYIaINqKMVqAk7BqhLLbvLkfaSQU+C9NUVDP1VdfPJjKnCFms9U4QJ4eP2KWAVUsKhkpeZDvhybWYXkUVXpXaW4MtmWtkKd9ij4TIZp5+HPoSfsrUOg7TtLcOvWrvXV0/Y217Rpk2vdvMm1bN7g2sQ//9u/0HPneMkAy5VhKz1Ql2PjGPX4ShyTZnI8rGcMH+sVynpN/GGkyk2lgMtR6Sy5vl7lnUjtDSnUWDu++hbapqQq9vi8RQFuFGwKeKlYbpO1IHu48ShYXj6/AQMHhi/S+84FQIMFpZ0YIRlg4yMzgI88yL9d9l0l1l2lgK1SOxLIP+QdPB/WQAi7ADychy+dDN7C85abd8CUnuE2t27NWrdm9Wr3+7/f4X739zvF3e3ue3SBO23/fbWd0fce++20mqrAY3e2X13IHIpeCwIKOs7RD1Lmuv3mO9fotqlySyngclAXnnmaWhpHYb0p5CSSwitOYdAhEBDrpkuttw43e/5iN2HaNA83ARu+VktDoVaLha9lSUE2VVX7D8h4a4qR/2WuQuBTLttrR4Dsa+2q1VItbFNribnk2mR/bRJWSwgwAAx5xBQahLdwHLaFPUQsXveJBSpQ6gBSAEqWVUAWaGl8p3v8iYUKLz0mya9BqppF3UXu7v8+KOAVyGVA561Mro/uQHekB6H7xQeqBOVIvNUn1wlnx5ZCLveUAi7HdME7TtVCB9y0VEphtWqjH8kv1huFmsIdCvbovfcOVUGqYQY3LdneWhFoeYuF/ALcFDIeZN7RvtblSoqkyicrgdPy555zK59/zk+UqZ0T4iSPOr54Jb5ajFLVLbY2ty3k96/pdFVYr7vzlqIBiXMKq1gpcR5Wj89d4EEezp8c1JG1/Lvnv/eL9cq18KBXJ9eG9HpOiP35nFVUW30G5ADofDXWQ7vIHX/wfiFlqlxQCrgcEu1EVE0Vbr60Z+CmDfXAjUJMtTQU6jkLFgsMZJ2kB4DAzWMgiG1prG9r0bw83Micki/rAJtaSF3+YVG4AE6pArc0K2xs2IdaOgEE6qhGCzjZVrPzuW6pcCg6Fk6k56LWmz8vjoFE/q9fpM1v9rwFcn5tbi3DU8jfcvdsyrgPf/37cqxYtHLM6jwcDZ66DZuGDb01iU+UxYkD1uI+9L53kThVjigFXA7p3DNOCZYb8iBQwIkDbgYeAIdlM1fgNnzvqa6kqkbhRhor1Fqm7S95KEhYYB15iyN9AEGxLGveCguBp1htNPCrAgCso8LAwBCNrjaBoPgKSqWT3wSRTKPUsb9u38khIK8QHwh1SpzfpNgJpxm15h6fv1DPBStVgQW9ZftqvsYvoIJNCP+sg2e4D3zlO5KXtwgVcuGc9FpEx+SPnaEytG9SXQ05hXgP72L32+9+3cen6vdKAZcjuuDMt2jVVAubFF0PBMAGeCi8VMFCoZfwnPmLNE1FbZ0rraxxpTV1bsq0GQKobrXuKOiUbSvcpKWH00Cj722qExhQDZT0sjNdpm3vsUce5igUIh4EHgKZ49M8xQlDqmtrXQ2uBlcjEKtQkOlbFwBNlpkzrkzCnZyLbNPVVeQ6ugRqcrxtre2OCTjp7ezoAEzhnMMx+RMJO9Q9e8h557+bes6XrlOw6Q+BbGdVVa6fnnNwDktSNuRrYAbszL8IcrenkMsJpYDLAfGeKZ0DrziCD8cAD/mnhTMAB2sGuAmIOsRRfaOwUnh537Rcx4RVuKIKAV3dQFdWN8i5EoFJm6/GAoyqqmrNVws9eQIAfcWrXSGilg9pJV4H1YpjO48RvAA1cTV1AK1OnP/aFVYW4KXDAAuwU44Na6xTINbFDB7FAu7SSldcJTCuHeTKBgxxm9q6XGX9EFc1aJirGTpKIc3+sE5XrF6r+W1g0krduf/LoXAU2tFAWED0o/897NeJ3nfVtbod5+zPEUtOHHDjXMzKDPIDnqGdwA0f2OEEcrqDVP1eKeD6uc459XX6lfijjhS4aZnycFOncAvwAUhS+OfMfSKs73YTZx2lPYN0LjCYtVLfHihxwhtXjFVXO1Db5tqaGvUVp4xFRMEnT8mPsAebWHGyDwDT1twgPh927nIDB9XrcaJasdD4fqrCFxDqwFvJo7TclVQPUFdUWSv7rhWLcoCAbJArF1daU+9KBbAlYsmVVFS40opK8QV4ctx8eautvVPhXF4/3JXUDnGlks+6FjkmhnGANDkJ9qlwgk/ic6liBtkMve/93DVbwM1X24Gcv2YedCGfAE61UCPA+Tix4r73DQ2n6r9KAdfPxRCOk15zvPhyq9TSoCCGQhlA4ntNsdzmS4ENVpg46/kDAlOmTtUwA3SraqoVmnQblIg1N2D0BK0OtvM2QHhvs4uX8gVO2ktJm5tAzk+71OI6W5sFhHYsYrFR9RR4ciy8MK/DR8QyK64WcAnAisoq1UqjN7VcQFYm8OINA14j4zi0h1eqp7x5oAOENc7HMyi4qrbaVVQJ9EhXKfspku0k70Gjx4s1OliAJ5ZfuVippQJErpG21Dl308Nz1TcZ5N59xdUKbW1P1CoxPxb4si2gA3BIIKbNAgRxGbh52FF8bv9uCrn+rBRw/Vjvf+sbBW4nhCVfprzlQWGUqp6EtS1JCuvsuQI32sxYJwV0/MzDQyFEFPoeUUBp/6qsrnK1tbW6jmpraf1QAVG5WF5+9g1m6GhqwFpjGccrXwJBCfM6E2CokTxYp1VkqptlAqNBw8UqG+iKaKwvLnVlTAQgToepCDDM6etSApG4+oes84T89Rwlb8JYUYC+tJx8BT5iGdYNxqob5AaNmeAqhox0lbJcJtbhLY/Nd036rumWMsid/ekvhqoqTvLXffpri+Oa+Uq3Hw+Hr7LqKYvmUvVbpYDrp3r/aSe71wK3UIB8wZOqmoR54Z1C6a0qgducJwL4fAHFumoQMDWKa9i8WcNNjY0JzHlhLXn4YE2JVSXV1lKpChaV1yiw2sSKYxokBvHyxS0AwcBh2tPWrd/gHpcqcXFFrUBmoFZBy2vrBAjeAiurlOpmgJGHQg8NMJL88WA1sRD5cg6xJQrkdNCu7FvbDCUNWekrZ1IFHzCg3m1qaXWb2rtcgytxTQLZeF+9yVftgaf3M3ALgNWrpdnwR5zk6U9DfPnHNWgX+N56/VdIlKofKgVcP9Q5b3m9O+lELDctYqHgUZ2SQojFIWH5o1XH2XPmBUuEguohgVOrB4suLOP4XkFTU2NmSm9epZJoEVaKQElgpJZVeYVzwGrgCNdZVufaimtdR80wVzF6sqscN81Vjp3sNnRVutauUlc1dLQrrqmX6meFVCOl+ilVTeCm1pjP3ItwWPZB+WPHG3xW4Cvc9Hw4X2/BYVHSnoev16MnO2VPm1iRHkLySMu5bAtwmarq5V/OXDtrzzTImdNbIFlxXYAsQOuQtMBNQcdu5E8Kuf6pFHD9TPSYvlbhRmGV8hUKubcwfJXUBvEufnKJvj5VKWCqqigXRxsUhb/bzZnnwYf1Y3EGBR/udqteeCGE/XpEQfaj+YtdF4N0K6pd9ZDhbuDIMa568FBXN3yUqxg4yA0eNdaV1Q9x3ZKGdr1yZsqlnVAOmpywHtUCC8dulhiOr2O1i9OvZPGKl/g2uaWfq61Zl1vFKmPG3ZbmZnVsq3nKsQ6qH6DHKwcezkEXxHmwNUUz9WaTQe5dWlWV41Irjh8PbzVaNdk78rUJBkSATa1SXci4W1LI9TulgOtHet+pr3OvPekEKT8Unp7eQS1w4rxVJk7AtXDRYvH9sgeUL4hVYn1VCfAYT6ZAofCK04IqaXzh7VYLhLhVK1f4feiEmH4bqqK0SemypKPdqaisTMux1Fq9XSkQJC2RfMUL6EjGuh35+RflPXi83xMm0BPnq6L+/ATIcqyNYmkywabBxsPd5/nLW2/122PlsZ2E/QGJ1O92/77/Pl3sq86+9KrMtbR96TXhxwVrWc4JgTEgpyFvuqnng1Ranbvluqvlb6r+ohRw/UTve/NrxXJ7jRQUrCcpKlr4fQFXy00Kv/aYSrV04cLF2vbm4RaAAQzFBzA6WFbWqcWDL9bK7NmzM4VXB/oSH4CyYvlyzU9nxsWK0X3JtmH/WFkKSdlVW0ubO+SQQyVe9ifH7UHYAwfmZWvRV7i63AZm4ZX1BjIy8GHifN52jDiFcQgrYIhjmbDsT3YGvzQPW9b89EhwwYM0fZBZceidl3w+HAdWb7i2sl+1oPkADscPzCRtBW9MENb92M5YD/DEkksh12+UAq4f6Ow3nOBOOvF4tZQoL5QlLbihgPmevghuGvYFkMQ61CEAwxfM7gAKX1jVmgMe4nwh9o40Pq8OgdzzGkcVkXiOQaurYrnx0ejWpib123TiTAGebMfBApo5Ak/ypiMDy9Dvyx/zhnXr9Dg9pMJ+WR86DRSmBlScpZFjVitO0lJFB4i3/P53CrPnV6z014d/4q+RfcAX0/aqp7FiyH3osrhnlbF/HI/cAzkWBR1hBVrYGYTTHmC/mKr/KQVcP9DJrztR23QywyRwFPQAN29pSbUUuCkQfLUpY+ERxtdwt/v2n/6p4Tnz5vttFR74Hdor6sHmQWKOjz2vDOBANnSDXlbyamlq1Ha1dh1C4oeFcLgcMceA1aZ5KSBohAdkHrjr165VWLBPbw3688lUC2V7PR4532aBpK8q+/V6HYCZWmty2oS5QvjhWM1vjWC1IwJy1aUlet0/dPmX9Nzs+vj7INeVsFxnOVtxRfrhaH+/vPO3zh8H4ZtTK65fKAXcy6xzTuNzfx5uFA+FVRhj1gM3LLeFHgqhoFGotZpIOk3rC/z1//dPzdegocMrZDuAgwXW2ek7KBQsWCZaJmXfEiDN6lWr3QsvvKBVzeaGRgUS6RjA2y6Wm/riDth/P+0UAA68X7pcqrn+OPxxe8vTW2J8YV+BYUDLxANBcxynB2NHgJumlW2B261ivenBittrj3Gupa1Vz9PH4fl1dzy4Y+1vGYU8cFhyft8cg9+/h6wPS1KlGBOBArNsr255yH05LKV6uZQC7mXUu045yb3m1cd5a0luhSIOqwwA0R4m8ODTdwsXLlIAqBVhBU4LW4CbLLPddX/4h89YdOf99+t6gMG3SXH333d/AJ4HX7tYYoCMwbwNmza5xs2bXMOGjW7z+g3umWVP6ToKOsfHODgdqiHHxXANs9QaJN8mAWFrc4t77tnnPKS7ijzAAqBJu27NGknvl9m/D3uwaZ5yPL5669MrXOT4mebcVw89fOS/B4z80Y4MSaOREkG6Jol7MdpItZa8dR9yfTkGQKv7DhMN6M5tfyL5YWKCgi3Z5tcRhbv5WynkXk6lgHuZ9K5TTnQn02OqY7aYQpIC6q0fe3MgAzcp/N6i8YXM4OYLPgWuy30rgpvpX/fe6zYLtDxUxAmQHnjgAbW6yJ8PzNDm1tLYpDCjbc3apBj20SDV0rW0ock+6SOksFeU+WmM2O8hBx2k7562SR58NnDz+o1u8YIFCkridNwaoJZ9A6+nn3raPffccwo+gxm+wk2cDi2RvLe0TD3A+Qc8Jo4bp8eHAP6A6mqpHje5xg3rXOP61WHNi5NCDsn5fuiKL4drDug4Jn/OHnIcjeBLyMa7suUVTMveY8X5I8X55Zu/9SX1U+1+pV/Vehl09htf405+7Wu0Eb+4pCxTeAxufsS+VEsXLAqWRABaBm7iAxkKmrhv/f7vIeetxStZb3/DG/ybCuyP6pTo4JkztTxSXjUvIrXgykMhDmvNV1HbXG11lasQkDG7hn6sWcQx8f3RBYsX60v8vCsKpKg+U+UeM3aMvmuq04CHffJGRY8l1gOw4cOHa3xzMx9l7nb/u+8+rdaynmOaL/tgG+DGesT1GFxb4+Y8Mcd1yQ9BSVGXe/j51RlAvxTVy7komuQCffeqS51+jUvOA593Z3WKd7kWrCedh3GHjtUjzDHLH3LQIHFnXPgpXU61e5UCbjfrnW84wZ38upN06m8pKVr4KQBYOvoNBW0n8x0KCjexInwBEiiI78MedtuDmwnInXHyyRnY8IWpWbMO1WnGPdF8QSVf/aK8FFQ6E4AsVUTW8T4p+6upqVaA6TFTRZRtFz/5pL6WxbxvJQJSX8CdG8nHpVXd+nHoEC2+PwcDN+H5CxZq/upkGcDZ8oLFT2oeE/fYQ6/D0PoBro0vaDVtckuXr5RqCLZSt7tn6fN+BztBCjmui5z8dz5/qZ8IQBw/SEDOW96slwRyPlRjObYWPj8o4Z5z5S/n4tzbU8jtdqVV1N2od558vFpuWiawAERYTzr+LGO5ATex3CTchUUk1p0CTf0QpkBJiekL3JBWSSVfrDGdy03298ADD0r+VMEEJlKVpJrauGGja9LqJR0Lna6a9i9JywwiflaRUF2j2iZhjlUOyO0zaZICsXHTZtdGAZcTBAKrVq/21psU7kx7m1ZHJSw+y96Rpz83c0oEc5LBngI3wDeostQ1r3nedbdudmUlsp9igYy4J5av8Se7k7RRzsMDlp5VXukK568g80CTOrIen0JOoM/PBEH+GJw5dl+dde7Gb35B8061+5RacLtJZwG3k07QaqJ/U0EefbXKKOB8maozNN5L1XTRk1rwfYcCBZ50PmwFJ1ub2/b0tte9TgsjPYI2lRJ5HThjhocKB0WBlLhqscQ6WhpdV8tmAaRYanJ8WC3VYtkwlRKvZZWUlrvKmgGupGawfrhmwaLFArYStRiZ5kirxbIf5omjZ1TPSc8jVLX1XICZk239DMTmiJOQ/GFG3za12tob1ruO5gY9bp+g2y0WC46l+59asVOqp0n1WHJF7jtSXVUrLprqiWq7b2uT+0RVX86LqnYG0kGahmWJf8dHLwuxqXa1UsDtBgG31590vBYGIEL5pBBnGrAFamrJiHW1SOHmCwrOWwsUHg8E9GLghk493l7glwPw/3UJzdx/f39cYiVWOTmm1kZZ3+1KygVWlXxCECiWuOrqKh0mwrHo9EmNDVLgq3QW3oXLnpFCz/cMPBCAHdv4uewo211axVWwcy76v9stDG1sPfGKNvUXLlnsZk2d4loFbl3yQ6BWkh6Nc4ufX6HHPO+ZlW69WJ27QgAOcT7f/uzHA+DKBHD+A0CcLwfBceih673qyLQnyh9dz9XWcwznd2YKud2iFHC7WO98w/Huta95tRYQtdx4yCme4vuhIECOKl+7W7x4ifi+qkaVUi0dAVvGGhD3rTDO7cXq6Cl7uyGjxuvxUPD4zJ+3PtrdQfvu7WorfMdARXWdKxfLi4G+KgEfo/aZ3BIrBIuE6lpHS4vOCEyHA9MrLXpmBQ12knfU+qH72FoD6urUX/jkkwFuXe45BhuTu4RPPeF4N2f2o2Ix0q7FPr2oDPJ/8XMCONnNPNnnuuZdAzi0BeQ+9wmxTAXicl0UcmLN8Y1ab5UXyznIj1O4d03NTAzK+7py5FwD8WzQ8lkXpYDbHUoBt4t0zaUXaIEYNWqUL9/yR33ARmE2yw3Aif/kk0t1GEfGctPqqa/KEb8z4IaOnb6P7n/wsJGSJ+Ds0reNaqUQ8wGY/febrlOG1+q3Tf3YPG91YIkwe2+NhCUj1lGg5R/HSjtda4NUZ8VymbNQgOXEcmO0f4mfdpws9A+Osi4+wYfnztE4wvw57XUn6Ze4Oho3id/kFix7Wq8d+yQN2PRwdm7Rc8vdvGfFeqPdbxcr7lm94fOfdCVSXdfe1XJ6Vel8kOtBdZVzEagp4MSqpA1TD95vraLpgbgzL7rcR6TaZUoBt5N1zSUCNoghhfrR2XPdSccfmymQ+pwrvICaObHcBG4eaN5a22Iwr5Z8567tY4fC9nTcflP0+Pg3ZsRwbSejqkWbEu1mM2ZMl/VqI+nxylFgdshxMPyjSK0uPSIFnPf15OQ/x9/R2iLWXIt+M5U3JxYBKFnJx2VkR5Kc4RUlClnen314DpMAdLg3HjnLv9aJBdTJ3G5SJRbLaP6y5/Q6hDekenrFirrVggNw63YD4JBBjut3w+c+6QEn161ILF791KD4XFf7QeAcfXucb6XTC0pI1nF/8c+8+Epdk2rXKAXcTpIHG4WeUuoEbvPcia86JqxF/LIDL7Hc6CFVC67DLV6yVB92A5v6IezhVuSu/cPOgRt61f5TpGB60EwYM0og4qukWCRAbvr0aZIqFFIKpFokQhcAJwV7QN0Av07OU3tI8UnPVmqpAXA5N3H02AJwHFVueomfWLhIz439P7xgkTvlqFmSNZNHyvaWH/lwsHJd5j35lL8eQEIvLX/8sd3+v0dZ2m2AQ1tA7vOXaDsjnS+ATiEHwCG1HC/XiZ5v3x7HsUtcOHwPQX8eZ150headaucrBdxL1Jcu/qAWSMCmEyKK/9icee41Ajetqugz7KFlUHPBglu8xBdeg5p+gT6E/YZiub3IDoXehAUH4CiQAM4XTN8jyESX06dOpSSGAhggy/GIMhYccUobAZIUZg8dDyYKrAFJX5jnGnDe4tORolYr68Vnokt/rmE/bK3XSvKQbeYtAv5yXaJjIH/2t+j5Fe6JZ2l7231wMynk5JSvv/Jjet3sevJjoYOA5TrKYXIlOCE9Xybu9HGcL7lwThqQs+l270ght0uUsfhT7bi+9LEPqdWhVT7xGQpB+LUnHCcF07fD6Pg1CjVWmzjaZLBkfLWUdVKA6VgIM29o+wwFWv7vbLihf8+e79kEkMzi5Pg1khRyzJgbAcoKFj0e8bVkhjAusx7Hdv64yYj8GCKirgRfrERAQA+kOHpnrUeySKp6ODkg2c4fk8JSfM1OpHuW/Cskj/LyUqmarvArXgb5MXLOXfj5r/t7K07hLfffv3/rgW4AQ8COfz3quf5quabaJUqv7IsQVtuXPvZh4YIvuFRLtJFZHtYxY8ZoQVQnv9a+MyEAjrcU2ugtXSaFIICN9VY1jeH2fzsfbhlJ/hQqHQuHr0Dx8XrcHEsEtiI5D0UNy/hIgefhplaXQg6L1VclgaWCX0HFfnzYF2p58MTH4tVhJBrHBmzod4NjOnZ1Ug0EbISp4rFyaG3Vy2K9xeIHTCGnP15UwT3s+Ias/rDp9eA6dbtKOVeOm+uD/OnKNWEIjfg3XnuVxqfauUoBt4P60sVitSnYpFBKVcTe75w6dYrbd999XblYJL6wS2IKKlacgKyzTQqAuEWLl/pf+NhqC3DTZ1/cLoVbEJyggOmbAAEsvgDKsWN5BMtMweZLIwk0mYeVOE3bk17PQ+IyhVjTAjNJK9cIn2vl38H17X5Ui/U66nra3sKx9OxOFOKCtlx6eYQVhzjXC6/6htxL39ao1hxV83Bf9YdLnwexPhVyupmchJwF11Adg6ZL3c3Xfzl9MX8nKwXcDgirTS0QtdgooFhvRQo35At3l3+QKYXATS04/2rS4iXLvLUWnFlKTDYZmOCu/eOuh5vuTMsXBxmcxOnxqxUZOU3orTDgo4ephZPeUCmcasVRHfMFOuOHkmwFWP1QVe1pq/KwK+Gakkb/sWm3W/r0s5KD0cDvUn1xf39kTmb55dS6pmZ/mnK8HxHI2fRWWOpqyem1EMe15VnQa6ob6PZ2/dUP10gukLsphdxOU9rJ0AdpWxtFSx5CtTRK/cM4dd8p4VENcAgPMe0xTN+tVdLWFrdwATPxUhX1VpvN8U96MrAb8M3dATfR8QdNdxPHj/Nfkw/Wk/JCDmTalH3Et2pmKHTik4DCSieD9hSSnMKq5w3QkADQbyhpen479VzV+bTqWOZ6SJiplfRNDiwgre61uyefekbWRduIL3/Izf3zkbl6zItWrfM7eJk1uJo54QCVc9/41IXeIqXTQarURfJD0HMtOP4i/aiPQl638VatXy3nSxr+h2t2xgWX+nWpXpR6nsJUWfVlrDYKuDyEJQK2krISN23qtK3hps8uD6y3SqqqqhQKS5YtI9o/vBRUtXgIs50+y6rdBTf0DwGEQkkPmoMgDKT8shbWYKXqKP3Qvmjy6yVOnbfIfCGWbSUfPkztq662D70U6nzAF+yezg1do8MndHWIFy8k98uaVpe96y/CkjMgUU3l27V+AgXa44LTa0Fqqqo21ITryjXk3IjoOU/vUmvupSoFXC+65H3vcF/++Ln6kOHU0hE3dcpUWetLoq+w4fwDSVx4huVh73JLGOPWLakUHgEggC1YbqbdCTcT5UkOzMNIIUQFVOI5X4BFz6aCCwuvxwrRw6bwyXIPAAPkxGcdpNKqK06sPnUBoH4fZIL8FSwTS8cvynop7E89t9xblRT8ADu7vhIioVv4Qv+w3mJxGS+6+ttaPXW0wYmvHUzaHofVLtcgXOuKSj+kiHF0Wgz1OfPnphfIzlf8FHIvXingsujS953pBg0a5AuTFDB6SKdNmypwo61Ni7g8p9pHqrCyX2/f5uZ/vR9//HHHlODVleWuSh7mqgpzfKA5tNGJXg64mfQQtMAhf66+euVhrpabgUYLHxIISdDH4wxutKuVeRhaWs2aPxRsK9w98uN15Y84NqFXmm3VKdz8sni6zDH+XaxPy74/ybfH8RwAuRu0Q6mb6nboeKA6nnlOcCL++vPjgrLgl1mji4TFeUsunfr8xSgFXEKXnnOmXBV/WShggG3atNCJoH/xwz+AphGEw3xn8kA/9thjOt4N2GkvGi56sHl6q8vLX2a4+UJkx0Rhmi7nCth6hm54iFHItKBJGAhpOBQ8b2l5a05H9TOeTbaXSHGadebCYS1aFVYtRyw2spZ/lo86ifQ9rj7ep5C/uk/NiT/9TjpsRW9zt7v4q9/2w0baBWzaQy7PCI6EnLtI2+AIcA30evlz9ddOroMusSz/xaWQ23FxRVMFKdzkSRpYT0M6Qz/21UKlT5h/cnseVAOXNpQL3LDcOtvc7Mce92DjF5sHW6snflvLCffF3/xJ/r6M4iCMPIgCpdYXgAlQCQWQvxqOAKTSlWGdOkAXYKegpKBKIksfrqG/FjgBGNsJyKimkseyZ57TZT0O3Z9f7/OwfPqv1jGDSDjNi7/2HbHe/HOgl9qcnAZfK+M5kidEI/Ts9Fr0/IgwSUHmlFkn4bS6umNKARdkcEMM+5gyZV8NI353M2ATC0SHeWivKBaaOLHcZj8+W522tRCv49w63cZNDeIDOnmYw6f9vnDbH0POL5+sOkjxQhlwEWeFSuXjWJexsnRbcaFgst7SWCGVP2rJ9eQb0uGFvbKoeWa2i7YnrGlCHP9CNv1dHCenyL2++Gs3SMD/GCrUOQe9PuFMuBSSjuvlr6+c51ZQD043LnI3pZ8j7LNSwIk+9f6z/MMjT9thhx6icUWhS0+hpu1sPKdh/Jo1GgeYzZ4tYBNfVopvc7z5aY4Y4e7Hvck6bXjvH8oUJDlv7zhnH46l8SHgrSqqnywTFVbqxZFrRDqJ0HyksHp4heqqzyX4Pqwh+WPHwQdthgweqGs0hU8m8oG/Pfi4+v1leEhvWkt7HFeDCyLX5aNfvk7OQBbkHGmv5FOOBjPkr5v/8ePM7T74ufrEqY98PH76Yem+qaABd+n73iFwe6eGZx18kJt1yMES8o+bfzhx8idUMRVwAjEccANo3mpjGIC32uyFciDH61h8H1RBqJm6fmG9IQoYBccKUyxdolzpUqRQuHocf3u293+RhDSJrJPd+DcZNELjbB2zl+g0TaVl6rSKK8c1VCA3eFC9G1w/ILhaN3hArWzkq/m5IP8amYc+4FKLVM6tXZ4NP6xGrNssZ6NbyLWxa6aOFeEa68UjKC6F3PZVsICjSko7EY/UoTMP9JHy1PBA+tdr/C+qOrG8rDrqLTcffnz2HL9MT1m7/9aovpIVqqfaBidw3NTof9G/cGv/gBsCJj6gC/KfgBZHYjPKLEmActqjUHj9Qthes7LyF+Tz9tZfkYBMoFYmQKPNTZalJPtCzOBpLdBYfSEHzYQde08V9pML8p0OHH+3+8zXv6vtbnadVJlw5uSCQ1wH/+MgFyUTi+QqWSCF3HZUkID71Dnv0AcNS+yQDNyQf9AyYKNqqtXS0N4mv750/c9+/HE3B8uN6qjE6Rff23hNh2VvtdmrWEaF/gQ3lZURyo8P6lg/XptSHxcsLD9fHPFhvjd+AOzcxOk03OE8vXyYa8wHaJjaG6jh+x32OO/59j39wSFCQcc6DzvNTaIrK8o131wSkBtYzdf5u9xHP/s1fY7U+o8ul146/0dPH+nPh7848M37/Au+XhCcLKeQ610FB7hPSbWURwloqeVG4cw8MCIeNHFaFZWHUV8h0vFM8mCG8W1aBZWwvnuoVhtfopc0CsJguZGvuG/+8Z/uW+L6nThPVThvvSqJvyGNnouGekRMDDVCds72grkCkTWUQ1mvzsL80a2I0BKs1psWZLVYgJstSxoFXgjnnOQqyI/l4Loa95ErrtYed9/MIT8SNH/4FOGvX+Ys/fUNTyfnbaeuQf9PF2XdzWnHQ1YVFOBoc9NHRgB06MGR5SbPiRZOeeAonEDKt6F5gOn0NwFu/n1JrDmqoQK9CGq+t9RbN0wx/s2d8A2FXSq5GAYpvJ6wLoiT/xTCzDLWmoe3ruNfCOt62zaWLGfirICKdLPMdn79ypUvqK/FN4BMi7dWWz3sFr6wVuNzSUvWrNdrwLUE/B+54svyzMhzBOR0ELS/RnYpfNiDTeNM4YcgXC69Hj0/AsXulnSc3FYqGMABN54MtdwOPkjjMg+PFloBlVptwSm86BntELDN9pZbWNfJwwn81JIDduTrH8qv3/43gdvLN4C376L4eCtAjlzCmYsR/vo4K2wZR7U9GRdGcxEySXT442VBn65HGvaJCenx8F+HqkjBpSfR98YWu7e88ghNk4tasnqdPCP8+Mm5yTW88PIvZ34ctfkjsvq5FnYtMxYrl0WD8bVKyNKmyqggAHfpe8+QB6fLHXLQAW7WIQY3HqZgsanV5n214mgnUdfpZs+eIwADan6WEH2ZOoCtU7/Qznb+wfz6b/+meeeErDBQoELB8s5fGwoR16cn3pyWUA3LH122MOVO0/icfVG0dZpfCKuTQ4BiYV2m7IoIK3rlGH1bXI+f6xpUUxWuQ5e74IoviSeA0+qqh13ymmcUrlNG/j03uUreeRW5W9L2uC2U14D73Lnvdpe8B7hFPaVSSGxWWP2yU4CbPlhADoBhoYn79R/+rFVVfZ9Q2+FwwI3hIAY25675zV9zC24iDwtgZAUnuFCQfAELsRoty+EHIOMsDdch+qfb84+V6nsossrgpVKPP6HqxV/dRnygJlHaq0oHRGify2Vhxfnr6J89Lp52OAA4BRvPFNc2rFPPXw/ENVeYJS4DKfyPgF+VVlV7lLeA+9yH360+D80hMw/Sh0AdDw4g04eLh4n2MzoQsNg83H77x7+pw5JbuPRpt2jZMxrWGXhxUh0ls2t+/VeFW86KC4LXc3HE8wXLr5M/LKgLUKNKpXDDZRJG6fDkjxTSdj4qI+lCpDi/ja5X369CwYYLEPMI5K8HnXdUVw+cOE6T5aqAnJ4z5y/X8cIrv+Kva+zs2hjodEvE5xeJk6D6GghXC4kfrlUKOa+8BBxw47FoaGpyhx4800eGh8JXRQVqAE3hJo5xbdqu1iFg+7uEQ3VB1+G63KKnl7vFz67QZ+prAjZczsvKRRCXyP5kyo+GKXhy7RRQhLkmIT4kzICLDPS/bqzrdH2IsfSZdRTITDUUE8RciLP14uhsyAvJqehl4BqKu/AzXw3X1D9r+JlrZtcLp1eQ7fjRYIn1GtRbKVdJrpdco2D1pspDwBnc+DcLuEkB8Q9Ut+sMD4+Ci8KJVQbMANuf/uF+86e/SdXTg07jJb2vxvoH7PZ7H80PsIl8uaBYxLJCRLwP+wIm/xVsXa6xqVGvhxZCCpqs15Q+ufdNFg7xHoAi262/NT0BHCDjPwWUgpoBnVRTuZd5IKZW8pNkyjUJkPsIkNMfVZ4977jmJOK69YBOMpDLwA+1XyYiROqz7q8X/q3Xp+1xeQW4z537Hm9lyL/9ZkwPvW88A76tjQLprTU/BEQtOQn/9k9/1+Eg2s4WwOYLdHiAJI/b//dY2EueiDKBQmHQICeqzsvKDtdT/2mBK1Jfq/iahgQ+M/76rXVNcPK3J8sehbhMyhDwRxCORI4LsKkLVonPMT/UMxOwf9aAnIeb1SD8DyxVVQWhnbwEuGX6THNF7OJlnF3eFHJ5AbjPX3CO+/z575OHoFMLxf77zdBCwa3WKim/dgFmjGHjl9LDrivAzQ/50AeGh0Wdzxuw3X5vnsEtI99+Q2HZb8Y0iKLXzxcOKyReXBIKHe1qOoRGf0iCCFDoCGf+RFuHhD7nKJ4dsxjWW35E+6SyhVh0+kMVXL5JIaePHQDrdh/97DX6fPofYf9j7MfLxf/0cusfBWF4ltVpPtybzNV0txZwz2rOPzFXXfhB+etfu9pv/xkZuFGYuOFq6ovV5qumFEy58eJu/8s/3W//T6qkYrnxINnDYcVMwZZvVlskG1qgf5UoXlFQ5NOoT2GS69S0brVrbWrQ68WPhK4LM69Yem95SYRm5v1MMLS36YLeC++FP+J0jVh9JNYNQlU1PwGHemYD9u6jnwNyAW7qPMTkT7hOsWQbse4UgqzXdJmL6pNwQQtUOf3EXPWRD2kh4MbuP326Lzg4ubn2YOi3AQAbTm+8WG1//rt/f1SqqUxp5B8syVD+3P6/x/MabKYOgZUWAC6Z/vEQCkXCiwhi9OLINu2trqO12bU3NYYC51dvKc3QuxDWbMif9jWRXetoIYTDH91Mj0rEcbEtP1r+cT1o0gT180lrG5vd2oYmva48j76KynPrq6ve9Vhpds0IergBOiw3DzhNYgnk/60FOlFmzgLuqo9+WAsNltl+06ZqWEuG3FBuOOASk6PnAZGb/9s//8P9+o9/U7ip1aYNtbKZuD88MNv9/v7Zmne+67pLzlefa4Tr4FrJtfOVTOgSoEIirisulJiS8gr9VgM/ID4BIj1eJkLEdkTJI2auZwMRBc9ffJ3CPLP38Fc7G9iuyNXU1rpaXF2tGzdimNtDXL4K0AGqi79wrfoedOLkmeYZVpgBMrlmHnRe2m6MC2/USIy/vnbJ5Tre8s3Cg1xOAu6qiwRuIoObt9w0Qh8AHgrXLQDTDgXCtLUJ2PhOqbZr8JDIgyCb/OHBOeoKSpmC4WGSAVOmvPhAaFUT+TSl5ZWuqn6Qq6gd4Oc00+vuYUga/Wd5ibYIB1/lk2cKbJe+Jtfl6gRgBjL8ugF1Gqfbhv2cePTheu9OOeYwYvNSHnLdHnKMzeQ5ZvothZi31Py1C1AL9yszjIf7q51B+KzDF08u5C3XflHTFopyDnBfuOg8+WuWm33lil8tu+k8CFhnAK7LXf+zm911P73ZPbdyjVu+eq1abdzz/xOo4QpN3/zEudq+te+kibqcAY9cFK6klycQQFGnDfylrrSiypVVVruK6lpXVlGpkLNvL/gv1uPTKUCc/75Dh15vsapjp/fJW21e4ssuBw6s17CPDUemx0AbnIS1/c46j7A681cKOblW53zm6+FZ7nmmFWLqy7XkanBBuD7ic23lj4R97YQ0CkXx5U/mshaKcgZwV3/yI2K5net/peRGK9z018pbbNbzpF+zCmPZvvWTmyKLzd9wrLVCBFtScikUHioKgQ/5QoBYJU4BJ/8Al34btrTclYjzFlxo/FcIWsnpyXNr+UxJj/xX8L3Ky8rDQWVy8PmSJnQyaJVVwq895kgttPlsxSEgN6C81J3z2W/o8+3b5MLzzPOuzzT3Ti5cBC8d70l8AKFeWNZzfcXdVkBTK+UE4K7++AUUC//LLzd4+tQp6gMvP8RDqp6MY2trzQz5uO4nN4chIdxk7myRu//JZ3yGhSyAIQ871xPFkNEfDDwtDIRErCdJgI231nqgppvja1r+oLCtKoInWVlCDfgNFG4iHS/nE4S8exxgi6fxJp2/r/ktINcuz/T7P/cNef7DjzjWnIRlQf5TJvwzbrcMj3ZVu48KO4nDwmaOPlQokCuSi9evn5Kvffx816W/3kWuqbHR7Td9qt5Yb7Lj+zY2a4S9/ue3anuFr6r6U0vB5vWtSy6Qh51fdJhU7BYtfUpgIbASd+AB++k19mPOqF4qbcSFAiLXUguYXOO62lqtmuq2kk6B48tST/rIepAUutIXuPCDE6Vh1l/dMqzfsHGTLiOfpd9WB736GI3785136/He/p/7fFyei+v0vcsv1PvEx3z8j4AvG3rP9H6Q0t+P4hKuPP/8bM1esqRpRHINT7vg0rCQn+rXFtz3Pn+Zv3ESZiaPGdP29SY6VVB+yaR6Cti8+d7prv/ZLWq16dAPKVsUvhRukSgI9nTbQx7L+BGAok5X+Gg2YjOFn60QSTJZlDjNUzMI7UC6QqJDnDrSBSfhcnplJaRpVazD82nMeqPwqgVnceJee+xRspkHdiEIS+4Dn/+mXFu5L/zYyHNOB42WAXXygxGuI/Djx8i3ifp2S78mXGf1uND5rX5rwX3vqsv1HjQ0NDg+5jJprz3VguAleb6Org+2LHOz0bd+erOADdPdP/D3LX5a/VRe11/2UX34dWgMQwjkl5+OgEVLlmlhOGD//QI8PEwMIuooULIt7Z+Aq7auzqeN0+ltkD/sg/sTChtO3yENYXzS2bqyklLx5b762+glyTdixbGdyNKSKC7ELP/pjru0ADeU1/m4Puof/8iFSUmzC0vuu5++QK+PXiK5Z2qhYVWLZec7ewRqcn3aWttcdXW1Txcum96zCG6nXXBJCOWf+iXggBs3AKDRprZp0wY3ae+JaqU5gZivonYp6K7/5a/1l0qtNrmhcsvd/xYt8xmlyuj6yy/qAYQ4DzippgrgePoP3H9GD7Aw7M1akn/6gLCtOHyGcXB/ND3rQuGRFJl0/geIGAAX1oftNY3841OB3grnmEI+4oDsxk2bfJscYhPSsK34fsogcZqLc3/5912usZIe2J2jXIGfgu4y3z7NvSwqLZWLB+B8dZXB3HbNa2qq9ZL5S+rvrW87lfsr8aed/wldk2/qV4C79Jx3uj0njJcLTgMyM+i2u0EDB7iqinI/txiA6xLAATkJX3/jb/XmqMUg/r0Ll4acUh1//PEh5PXGw2aonwEchUJ+6Rc+uVSBAuAk4B98Wc4UAi0RWgwUJlzo2lqx4DRa/2oaK0j4Pq0sB8vPZgHRNBYv//iEID9O/nhEksxbkASK3YaNGzS55sV/0pp1aNuI/iSAezFWXKxctejMmgNo3E/9MLe2x5WIHSDXSK99t6uuqtRrqJI4f535ilmIk3VvOfdjYSF/1G8A9/0vitUWjoRG6M0Nm92YUaNcVXmZtrlRNeVVIeBGO9w/77pfky945nl3z4IlfsMCVhJosd5w2HSxyXogY3AAYAuf9FXUA/fzgJMFjfdhtvHb6V/+yEVnEG5SeuswwxRifj8aG3zNU4N+GetNh/xwLGq+ibTQhUZzSb5hw0afr/zV/OS50GYK3S6sCdD763/ulXJd6jaX1mh8X5TL1dRY2vlw2YV6H62zob2jSz/76L/9K5LrV1VVRcDfCzopQkeFV5E79UMfDeH80csOuEve+w43ca+JegN4mhubmtzYMWPk16fDVZaVK8wUcF3tDPDRdyGx5P5174NaVfnR3+8KORWWtgW0vugNB/N6m8sA7iC14DxcvM9/Hn4NhDDCgvNVVF1SYGnIO/3Pn+BCHNkiTS+OQtkDW9JROHvghjZsFMCxihzVGgzWG0AEdiEvqq1//s89rqlyoG7Xm/IFaNmUgZxcvA7apouBW6m2zel1FXENa6qrQ/ODWXB+nenUD34khPJDLyvgFG57TtCHtLm5xTHj/B5jxyrcqioq1NeBu/j8ctPOJpbc3++8y/3k3//TXqVC00sFW28649hD3U13PODe/qrD/UOfAY2njVlgwAvA6bIoAzjxfUgTibDMWCTet40qjCRMYdT4sIznrQ8Km8/Xq9ut30A11adVuCngbFk2ZGOAJ96vH5gXtutRPkMtm3782Yv07ZEiBZuHnLbJ6f2TqiqAC3DzPyjY9qEBQv7zJ58g97IB7pL3vt1NnDBewNasF3n8uPFioMmvskCML5gr1BRsQA64sewhd8aVXy1IuPVVuwqCpg+8+UT3vd/+VfyTxP+Lxr3/lNeob4WEwqSWFsvix0A0wPmVEs9/1ovrScfabrdh/QbN56Y7HtT4t77iAHfr3due7aXQoJbU9y67wFdNgZuArJiqKtZa+PGorq5RuKmTairRXG/FnPinfvBCTZcP2u2A+8TZp7uJEye4FgGbv8AeblQ39BUTsdCqKr31Jn+kehpAhy/r33b51SncdkA/+MzH3TqxggCHh0eR/IDI9aUao091kVu4ZJk7cP/pUnPxDz2WXC7pzQfvq4X0zvsecd3FZa564BD301//JqwtTH3/cqmuYrmpBQfguLfBkpOLVV0TrPBwz/UC8oOj/8WK+0B+QG63Au5j7zzNjR45Qi82bsL4cXIp+d0QJ9ZbpxQ6qqa+OurBpu/daSdDpzv9Mv96SQq4vul7n6LhWR7q0hKFHDDjMUb8WFQwyFYiFgjgDtpvuqSlmhgKAQ8+vj78keRp8cNEfLhH/Pp3ux/spo9ev/kQ3kUmpCVSyyc/lnfNWewq6wbqsKGf3nILCQpWvPVQLPe+uKRMbmOpgoxyx02vrpZ7yPMg10wS6L3fQnIv3/z+C8JC7mq3Ae7j73yrG6Vwc27CuD0kRnbLxcXJ04kFV1VZ5cGmr2FRXRXAtbe5bpxUU06/7Csp3HZA3/nEefILLg+1Am6jPuA81CptyxJfFgcOHKgPvreogVx48NURjh5+2YhhIhlSBgE3zVDuk4YBnvxoWTWVLMpDx4Km80TK7Av/27/9u+aVTW85bLrmx7Y8K8wh5/fj1e2KXXdpuXtwwVJXXFauw09+duutYW3hyqqrXBOd4UUcbzfQi1pdUyO+v8/2bPAP2T08Nccht1sA9/WPn6sPMFXOcXuM0UuoFzRccK5ldVW1PrhmvekLxAKzrvYWrZ6+NYXbDus7l0g1o7PdV1MEcmuBHGOlZB0PME7vhfyrHzhA70kPBBknx/0hvSzrRuLkj46DY1mXJBAKQwZeIW/+yU2VcJeOhbOeU6LZnhfCdX+WP2J9kAINCazWr18vy/JMZKDJOjkyObfuskpXXFHjKuoGuP/cc4/Gm1LIAbnzBWpiwWHNqSXnyx2umh5xvZn+3tuPGfeJHthT3neuLueqdingLn77KW7s2DFytTrdnuPGZgClv9pcaHk4ubg18kuiz70+vL4jQd+zaxW4tbW40z79Fd0uBVzf9csf/MC1NWx2bZsEDG2Nrkh+ONYKJDy0AIo4uegGuQH1AjiJ03YbftEJk44Hn6SEFEZ+HBxrvIokD6w2gY5IAeYDmfw91LpdqeSdWQ+clKU+T+SPxIf0uNhMf/C6BXDrPPDIT1Lo81NR5Uqq6lxZdY0rrayUOAa3drp///sOcvBZSZ4/vy2F3Pc/fb6WN4WYPgO+/CnksOT0fgC5ErlP8qPB9dN71e1OOcfPAJ2L6nm6drK+8cnzBG6j3YQ9RrkJY0e5MrEcqspL/Zg2eQjt5eCWJoGYgo1LKheUB14usl5c0oSCk8JtxwTIKsWiqR460pXVD3fd5TViTBWpZayzw+o98JaQPsfAg/sQ3Rt1Ci9ZJ06bDLQJQX58ZJ133CPWk8Snw+JiW11HfljjOFlnSdhA31jROO9kI82bbciDDiYmT/AdTeGYgK9YayUDh7vKoaNczdBhep7FpWIdsg/Znrx7FIcLV+//wnW+PEX3Rtu3wzLXnx8gHOKnRlvHJf70E47VuFzULgHctZecr+1s4wVwZWIF4HSuNj45185n5zzk6EnVQkDhQpgKXFZZ1IIk7q2XfS2F24uV/CKXVVUpBGpHjHGjJ00V0FUpyzoNdPqAi6+QkbACiXgPMe971wMjCkQWFwqLbeeBA0QZVS/Wm+yYQtOjHrgpLGW/OtVVBDYPVHHyqBaLtVYxdIyrHT3e1Q0f0QM2/unxMZKSx8hbgpKt6p1vfasPFLg+fPV3/I+PXGeFXfjBamxsELB5S9xfNG9L4+hZP/OtpwrkXkkWOaedWkX96kfe5ybutZe/iHIBy/gx0LcQfIFZu3adW7T0GX0op02f5orLKnTCxSFSAIGbPug81FItpWr6lk98QfNNAbdjuvmnP9FryfPKw8q1pQ0MuKxY/rxWXdsbN7nOZqm68jDLD9BAraIGOJAWX+J9Z4OPMw0YUKfZxmJ/Gqn79b6GdaVzpbwIbtKsLD/SkVTShm1Yp0WMapQ8I8VSFS2trHFNbW2utKJcCx2pVGE7haoAlczI4t933qFxyJ+Dcz9P2+O0HfSGT3xQrq0UTpxYbK1tHW7kqNF6nXSEA1VYCfMMtEt55MmhveDPf/mr+8Htfw455YZ2mgV349WXu3GjRrjO1iZ1pd3trquFcLNbvXKluBck3Oomjhnh2nVwr/yiy3ZDhw3TC6kPKlUROhXEylu9eqXmm8Jt2yqrOmcrR2nWfzyXem35zenSgdQjx+zhaoeOcAPGTHA1YgmV1A1yXUWlvAWnlp0Hh4eGt8CwoPwPlFljZpll4oO17Qdke+tA00Ea0hEOadUaVCtNnFpszASD1UfvqBxraaVzlQNcab1UPYeNdjUjxrqaYSNcVX29Ky1n5l9Jk/kr0nP055lpWySMC6nkTNRP5cuTWuiUNblnzQ18ArLTrVy5InPPuG1tkk7hZj9wolcfd6x7/yknaThXtFMsuJu+eqUrKy2Wh5Vez1ZXwbCEtWv1AeZi4nfKg6w70mqKWAF7TJRf51I3fORwfbg7qZK0twkIn5dt2twHv/LDvIZb2eybXft+bwtLW8pDqo/q+GkI9OiXP/xBeFDliut//4BiF/Gwcm90WIhE0ybHh5yZ1KCTTp2OVlfU1S4/2B5SfkO2947nvY5hIj5j72fCXuyWCN09xyH3Fwuu53hEYj3odx1wWGll5WKdVbpSwgIyrHwrWJqRhDdGA5ZZ5bPjjz9X3wvvl/99x50SBuqdktaf689vu83nl8p97+MfcC1iuYlJJ/dU7oHcHzU2JKzvr8p98c+ION2Cu9Yt1l6L+9e//u2+f/tfNba/6yUD7maBW2kJcGO8Wqt76NHZbv2mzZkHTf7rg4e76Z7HFFo//9wnXYk8xN1yAYcNHyq12A63aoWATbbnV+WDX81fuAE21ax/eT+bskCrr7rxRz/0BR0n98Burj6k8scK+5o1azXOf/3KVzux8tqlGtjW3KSTGugYRAFesfzgAAvS4TKAi8UKH9C/tIZpJ4LutFjKkYcWICshrMthlL0UqBIKmmzH86LHjtOcvMieSTCBG4aa309Ipy7aDifg/vedd/ofWQ5Btrv58lPZcIfV2w9Rruva888WkMkPidyDTU3Ncj8q3IQ993TlNAPwXBjg9HrLBRa/VX4E77n3Prd540b3kz/+U/Ppz3pJgLv5a59xpcUCL+ZqE+vtoUdmi6VGw2WnW89XuiXN/nuNd40CsCt+8Xvd5qeXX+RKKqvkwtKOUqSz9XYHODJjyIeu+Ulewi0DNtPMs0Jg5wrAcd21t5TqoY/WAs5zamOd1q5Zow+sxsryoIEDdZ1KAEFVkrXMydfa1OhaBXpO7lN7c4MbUFerX9aSUiBJShRmDC9gPjJgpr/8UmiwBGxGizIpNCUS1n1QYsKBKYx0QWAYHS/iePWvP0Q97o1SsOL55XqcRkRw73J33PkfuQ7yPGouPpObL3+zv/YP/0Lz2BXKFSBee+471XLb2Ngsvtyf8go3aZ999JVJ/UHSMZP++qsLam1tdffcc69AbpP7yZ/6N+ReNOBuvuazCqYSqco8/MhjvopJdVQuDlXOUcMGu0qx0po6Ot2nf+LfC/zRJee60upa/SVnp40NDVISO1yZQJJq6TlX/0DT5ZN2F9hM377ma/pmAoVc27bknmjx1g4D77TDQZbXCOT8L3SRbhPL0kIi8kJAo0N+wPjoDAJkzDnGakmlcX4bDUnY+6wFcgYi72tAt+MYNAefBUG/mXnhD3lv2uirqZbeOw9GtVhDJjyHd6oFJ9cgrJcc3M2//52u3yFtD4ZZrPH25v7/LH9TALexqUUhB+CwqgEcFjXPDm88ZDqHuOTh3gI4udju7nv/56678XaN6696UYC76StXOidA4rdb4aZWm3+Ihg+mN67YVVUxRXKX+8h3bvIbiX582UWuVKw36hiNDVRj5be1Uyw3sd7OvfZnIVV+aHeDzXSDAI5CXi/A0ob78KND4da3GOQhNcCtpZqKtSVuYP3WU357kFDNpHMBkOgf/eI88X41vk+nkvX804chiOUSsfAMPhoTgn5bNuuBk99W/ugqn793VFM3anScVidpIMD/EO87NrrdHXcI5GQ9KSSHFwe47an0XVs3KxAXqb8C73PvPl0BZ80Hk/aZrM8JP168z4v41KDeisj6bm1pkQggd5+77qb+C7kdBtwPr7hYHtZut2jBQik8AjYeLnmoNjW1u+MOmeaeen6lFphqAdn51/f88v3wk+cF663UNTaJ5SbbOqmS0nZ37td/ElLlvrYA226Cmuk7X7+GZ0/vR70AiwKuhVseVMq9WnEALQCDX2iG7vAwJy04lQFGF/S5VtXVAbhYihwfNPAk5C04Qjwv4skfjsUDSfCE9cVqWfY58NdDrQdwWHAb/VrS2TZsz7Is+PzCeoHcnVRTuQaaFmtRIPe7nQi5bHDLpgTwUH+A3ufe9VYBG3Ark2Msd/uoBeebEnguaEKS6pVa6l56Q7wVJ+IaA7nrb94FPxw7QdQNdkictE5pJNXP6uoqd+0f7nRf+63Uw+VEn3puRVa4ffMDZ7nSqhq9iE205Yi1p4CTgpcvcANsGbgBtt0MN68eEKxnHjWKv4TVEfYE8IVfwed/nMxtJY3qide8fSjkqwsiS5MlD1NIz27YF7DN7DuAqmcZ6wurkVi/LzsvLFNLt6XCwdgxsb+w4LfVoM/y5RAQTLith/fsftl1IQAM4suH7U6HAzUy+8g65ZyLWKFDdrCKnTvysEPdeae/Ubfrb9ohwP3wMx/XdxqXP7fcdRf5X0PrEDhoyp46WLR+wAB30fe2rJ6VSHW1TR7iZsxazF46FTroUPhhSJG76h9g89KHUv7gqIauW7c+A4kMFKISTmjIkCES1QO6rcQmIeilT/7W0rxDOCGNDvvmH8fnF/0+1QWoKXTlWfH7kXPB6tQd+m3ITT2UOZSeA9K0IV42d6885hiN9WvwM1u//NoO8HYX9Pw19tdrybJl6vsrJk4uui6HSDqdsOh4Z1zMYjbXdUfOOsSd99Y36HJ/0g4BjpPtEqAxtoizvuKnUd2bp0/iONm4F/SbHzxbe2eoCq1dvdp1t7Vpr+uHv/GjkCI3tRXY+oN4CNUTwIV2lHXr1umDquUakBA2cc+IU8+vyw65KM7vwrygLNuIND8NsA+cFAisNQWZbxtU683WK9jESeZ6DjxP/Asn4H0rjOEISKvL3rGvnsPxaTLrgk5/406yNvpaPe2rEsDD7R7gyTWVZ4Vr6p1dLy5kl379jEUsOYbcdEj55h6WlZWqr9dcNiD1uW85mQ37jfoMuB9cdpFz7R3u+eeX6/KVMdxEnJxenCjHa9/3dldcXunWrlnvOpuaXcfmRrdq+XJ37rdyt1raK9j6C+SQPqDFrrSUMW5Ycus0WuFlDulT3O2GihWnceEXWWGjd7RHWy4hfeR9cOuVXmFfBjcFGAVB8/fr9Z+lCRlZYUN+HXsK++MZ03U+rFIvEWcKy34bn795OaHtAO+lQg8scWn0+kjZ1bCu4SJ5qxprrbRUVso91HWSqLOjU0HXxZsu/HBJHFVVEtz2TT8xbX9Q3y04+cXtbG+VH+BOd+XPt+418Q+gD5kqBg1x6zdvdh2tra6jqdFd8cvb3JU3+fFwuagM2GL1I7ABA8S90OdVrDhtHJbw+g3ro/X+r/mMHVsqVZOly5Z6q4po+WPg2VKau/iawEdFIkZdWKV5aCGRgiTgYsVWW1kaBSzH7o+M4yI3XZQ/+Ox74KBBIdyjsIlXCGs+4l55TJYXxXfhOLhdqgTwskFvxyTXmOsl14kfRX9dscq4Z3TO8CYSr+G1O3mc5KbQs8o9IaHUEnjlkvsmjvt75OGz3B133e1uu/aLZP6yq8+AY6DnnPmLMr/yW0tOmAdSH0qvZglqd3NLk/vMLf2zl6Uv2sJqQ0CtP1lsQQYkfwdAAeOYSrQHkweSSSN1AK8v9xrnAdbtJu29t966ZUuXuqVLlrhlArxtK2QSZPvWTAjzD2jx6y7S6k2I30JhOw83SUfng4QBrS5roduy+uT/eN/i/bJ5PcelIfmTScfuxXvrZ2/zkNtR1x+1HeBtE3p6beT6ynX36nYVlf6zAb49lLY2MW4YMQHkSKZWG6CTbWW7u+97MKTzkDvu6Fe4O/57j7vtGy8/5Po0TOTbF31IZ/hYuOwpd/2f7gixW+q7F56tfkVFpXv3V77nvv/JC937r/6mxuWqtrLY+iHUTIx/808rDyxDQPjtogLix8K1tYgV3d7h6usHuPKKCt8bTgqDQ9CTTz7pAwEI9qu+58SJmbR1dQPUV1hFQOP/008/jacPu4enRuu4qanTpuqCBx0rxMdK4D1lCgfjrXQfst9gffIaYOYY1ScD5zYAa903K8iHITHe1xjz/YK7I7y25cGJ1drlbr3yNNa+ODG49/5X+XA/fi4ySg5TCcd+5bW/cSVMGFpR7crLy/Ra7zNpb73UzU3NCi6dcIEfqnBNN21ucLV1da5bv8glz5Fc90rZtkFqaX6IifyoypX/9513C+yOcKd99DLd7uVQnwB3/YXvd/MXLnLf/uudIWZrfe+j79EL8IFrc3/YxxZtbPxq58AD7AEXnkF5OAEYI9Ip4RR2uvmBDD49p6X6knWACduxsWixAI5llTzlCjnJS32eelm73377KchC5pq/bh/CGgwWGCKGfZNq2rRpYbOwnUCHtyM0b90Hxx3gRhuigjoWG/s8gVymY0LyAnhAzov8Qyjs64477hBLxB8Xq27ZWW815ALgerE+r7z21660eoCrFGDpPZDrtA9Tnsllp1OxqXGz3iMApz9CkmSjAG7YsOEKsmZe2JdIrm9FKZYgce0SV+xKJf2//nOXO1Ysurd+9NNhj7tXfaqizl+4eJtwU9lzlcPaqiqKcuHhDZJnzPtSyGkEBmaIB5cJJ8vKyxUYa9euVahYesSDi6OqmpEkMDjE93f27MdDKIgNSaLpJH0Et7BCQ6B03jz/cWbZQuMZLa/bIclnK7hJnMFPFZJm9peJCOuDR8ADOVLIi+hnnn02RO6geB5wWHAW7o+yKrW5hPR9WTmHu2fPd9p/IPdBL578lzuYub68bqkD+jvadKagdYyEkKrq6lWrZJsOWe8HAHPf/n7HXWK5d7vqyko21qrtq445Sm/J2Sccrel2t/oEuG//NXu1NNacRcv0AcpFbQE2e2j764Pbi4wR+nCqT78Qc61hHXFr5Be1DHCUuZEjR+kXrugF05SZ2+YLfywecoClv+BbACWS7VyUgVVQZol8OQ75N2/eXE2nr/hhFWAhitMps6Wqw/uPGbjphkGSGfmxC91PJnORJkukz6JMW9O2k21bO3t4yM7SNoB2xPnfcYefd4O6eDKAvz4kPzhhzj8uqP0AhCut13neEwvc3LnzxT3hOtvb1OnM3HQ+yP2rlGepSqB23LHHuL/d8V99EaCmqtJ18s55e4vm+bqTTiDT3a4+Aa5vkqsSP3A5oCTYig5+pw/noKwxn/sQ3wYg197eY8mVCUBKGL8kicrlASwrKfXVOt3Ibzlp0iT1PSx5yH2jv4cKcUaHHkpYFSZs4SPFJ0VrW6v6PamFDwLXDrEyOSZm6FWrTawFPngChLSghS10t5K3vjQvx9pzHCjknFn023rZGXi98uhjNM+nxHrrSZPDioHWC9TMcc1w1nkT62PX/1yuqzwjcn3tPWX/g+Yv86jhQ11nW5vrkKrnw3MW6KcHOtta3AsrlmvHQ1dnu66vkOfqmKOO0HWkqa4oF8iJa97sSuQe3/LVK8Med592GuBKmT4ntG/0d20BNhFg44HXgpOjalq31rU1N+qD5qsbci6hEPNQd6gl56uAFfLgYc3RZgX8SouZPcK/r5qhAZKwPuQCFfLwjfS+oPDSOwms4KjLbIAnf1Q9oDLROzd37lx/PLJvrDadTkmrpQlAAVeOjYKpeQcn2moGlOBUW+ySbbgcPu+e/HNQ2wDakRd8N+OAGuI+6L0TZ/fpiCOO0HWx/nnXfXqduW5Y+3rJ2KarSCDW7UYMHuhWrl6vswY9PGehOqy4F5Y/pz5DyDpaml25bPqXf/3HdTZudh1MpCrPGT6zfDPD961X794Oh50GOGZhxTTtz0qCrfiQs13Job53qadA5qa6Gje6ljUvuMYXnndNa1e5ts2b9IHj1RoPCT81OA8v1hI9qUAO8UI1D4K+WK3qdntbWxzXJTzsHnCA0Dc6s46r5guCWVehIIVNdeMglilozU1NlCKxJP08cQCOThEPHg9E8vCDSX01VsGK039ZpJsGcOFJIkunOQJOccuefUbj2pg2/8Vod1dPY6BlgdorLvxexiGDGC4JNgtn018enOP+8Z+7BWYMD/FDRHSYiIRHjhip1vZP7nzA/U2qtB3tjIntcI8o5HgzyX9mQNvp5If0pOOPdT+//c+uU54/1jux/AjzRhPV292pFz0fXC4phhoCahQmbrZNCZPL+vJ571U/8/Bq+xWv1ZS4bqagrqx2ZVXVArRyN27CeD9EJJx7W0uLa2/lwezU+Db5kaqgkTjAYtGiRQEWHixcN53IUtL2zDvnC4UJoChkCAtU2nT+MAx8gVtjk1qTfAt3/wMO0Opyj1Xlq0ZauCStiT1rnqJwWCIfs2HDBvlLAZa/8kevAAtxOgkrgDlWKWzf/d53XbtYE48v87DbIe0OwGUBmemoj3xf/cy9Ful5h+VkOPZNLN977706Pi6e0eTEmVMdH4L64NlnylWTbfhBkfuKdfbUkwvdR79zY0jp3OgBNeG+Ofepd5/qhg0fIUZOhWOGYJ2GXp6/9o1r9YPcq5cudXViAZbW1Lr2pkZ9Hs/49JdCTrtWeQ24JNhQ6ax3643hJtOTmA+65uJzFQI6ZknOS60ofn3xxTaT59S1yx8mNdxrygyFXZmOhZPrIAWfX+NWsWiw4GjcL5MHtR3gCcgAnObJjkJBIU2JOHzG1al1CJBsvTzcxhcA5ydI7HZtba2uSQDHXIGVVZVuxgH7h0JiPzZyvAFsvT2UmXw1UKRDRUxso6CUvNRaEUcbUTuWLJaDxPNWzc9u/KWme3hJPwHcNoB29Ec9gLg+Jgv7e90Tzuabksv33HPPVoBDJx4yQ65jiTv33WeykTi5t21t7umli/VtpI/92E9eaxpdL6ATf1VTm7vpqovkGZPnirnl6GCQ7bvkB3TV0mWutr7WldYOcK0b1ivogNzbLvm8z2QXaqdVUfuTklVRVHbYe1z54e9Vy4PJAPIFbqhB4MQ3LphMlO+g4korK/y3D0rE4irudhUl3a7ctbmOjStd0wtPu7VPLXZrpbrWLFVZmFBRXSWWW5W+ksc3GfSLj/JgW4eDPuzqyUMrIOrgl11cxtqS+J7CBVgDFMNfqpqNmxsUOnR0MA5v4YIFssbeawxzC+oWfpstRN6RA+BYjXV1tbItEGt1bY2NrkkKUMOa1W7TyuVu/TNL3bqnl7oNy591TatXuNb1L7jOzWucMFfhvi2w7HJZlTPLMQA1c6jnuvprHDuLT8p+OExxeFvSNlwd3Mt11v+iIjd2zFj5seKp2FLLNza658UNqyp3Z1z2dR1C0t3JjCO+OeRnv/k/dq73nfvV1kKV1n97ZXcoryy4LaC2rY+6mPpjV/+L0Gc+LFapWlP1PEsqHvqeT/T512wAyKjhwxUgtGm1SXWtu4gqbI2rGzLMlVfX6jatDQ1qkdFmgiXHe6r6kFKQKFiSv+5G4gbWSzWVGCtkEmeFCb9NCgztgA18iEjyKhf4DhhYr9YhxzN5n33U1/Y1fCkYmhd52P4ocLKtrhencZJOz0uWeQWNPWohYiouChidKgIxspEjp/GPFHpcv/zjP/TYuGb3L1iyNWRsiJDF2/JLsd4S+3jlxT9yd17jmxaOuWjLacNiYCUhlvRRHEbZ0iTFut6suBMOnOLk11GsODlvuS88O3z+85mlS9xF3++ZoTspvrmKbv7Cx/RLaSXllfJLUuLO+9Tn3RfPebsrqalxpdU1rmX1alcsP8ClVbXubZdepdvsKuVdFdUgZ2N99tprL7fnnntmmYXWuT/+dWgI7YD6IRQ/K4ATk0QLbX0956ml2hdneZD55WSywuGDByvAKOweFlQLO7w11tHtKusHu+rBw9Tyo22OcWq0ydAut/SppwJ0fJ6hCLm//vOf7vRT/deqPNgAh4GlyDWLddkEMAV0ZViVpaXai0vZo7o4YcxIKWBNHK5aVqzAuvIudDyQGGme4mSRD4arL//Wr2MiATkvTSfb684DkDnSTB6Asdv94vfhk3cS/8DCpT7cF+0o4LJYZ4AtVhJCtpz0UbY4lC1NUtm26Q1w6ISDpml72ofPfodaW3xSslOqqG/9jH9jpjdlIPelT7pSACdV1aKiErd89mw3YMQQVybV1J/eeJs78/UnuOKKanf6p3ft+6r5B7joho0YMcJNmDDBDR061JVLFW5naIehuBuA+JkPvUurD4AFAtSHbyb4G+sLNUAbOXxYpkNAP/yLw+oRR/sXPWCd3UWuvHagWHN1+j5oV6cAQ67dk8uecr//y189cCJZwZmt1U2vL19xhaYDPhvFumoXWNJmR7sfllXL5g2y7za5J6Vu2r77KGj1aGUbcidHf/QseVhq2FaaMmGBHN9qICH/JV5OI6zCKhRPj5OAB/svfv8XSQjgtjepQKTtAS4L0ExJsKEYOtnCva1H2dLE6i29ieVtAQ69ZuYM9+H3vJPE+gPVJYB7y2Xb7xwwyN32lU9rhwPW4Ion5rsBQwa60rp694tbf+Pe/trj5cezyp1+WQq4HZLdsGHDhrnRo0cr5Kqrq/3D/zKoz0C0F7d70zberPCAo+dUYCCQU8BJ2D/THnAsjBwh1VPxAZpCTmCDr1W9zHKXViuFamLRDZFf4Srdx8IlUpVTgBS7P/3r335f4Zpa/mju4sXqmz72/nMUagzibW3Y5LqaN+tHwnlbQS00Od6p+072edE5wXkEmBEm3q/r2V8Scux/A+PyZLVVYf1wFlaGZQ2zSG9vt/v57/4iyQVwvIHTF2WD2zaAho792I/V1+NIKI7LFk5u01t6lFxG20vD8vYAd/z+++p8jue9VyAn17VdLPGOTRvdW6/6RkjRu4DczVd9zFVIlbS7uEyv/+YVy8WCq3O/uv0P7ozXHCd5C+Au37Vzx+VXG1y4WePGjVNHtbRCrIZMwehn+uNnTw+hna9v/u5R5QAvTPNs02Y1cuQIfbDNaqOwK+AC5GggJjHtXazvYJaPknJ5EKvd4mVPyzoyBKIl7q933R1gRNSW13ceMAy66F3v1P20NgiAOttcTVWVKylhwLFYnDjJY9rUqfoxIq3aYomSH/vBKelCZhrQg/DHyXnpeXTpwGPt3BBAa/tcsNQkQpY95PVakF5y+Pnv/qx57zDgtgE1A1qsJFhQHPdSwqZk3PbSWHh7gEMnHDDVPbt2g/vKpRe7ToYUbd7oTrvyK2HttgXkbv/aFfIMATjnNq9c7krk/p9x2dXu9QdPd+984+tdUWWlO+3jnwlb7HzlJeAOOeQQtd6wEHJFWHqvP3FNWNpauxKG6Ed/nq1gwwnxBHDyWAgMFHQCjfmLn9bqK9Ph0HBcXMyn5krd3//3PwFRaCtD6hW5+WE+uXNPOyXzUW/AViPWtL6xIPnwESLG1E2bNlXBxrZ+iAkB3dy8jKycAmVIpYVV3MYNUu0Vn+OVtXr8aq0BupAm9vsMuO1Yacd93M+eo3lnUTI+Xt7RsGlH1iNbzuY/9Nj0bQIOTR45TO/Ply++wHW0NrvOpgZ3eh+suD0G1robLr9YOxy6ZPvNK1e4YgEcQ0h+edvt7h2vP9EVV1S6t16664aL5A3gDG5YbIcddpgbPHhwWJMb2h7gdlS7CogfuvzHrtMxlxwQKtXhHkDvH/c/6CGnVpcokOmYGfu44iI+/FzsqqsqPdTYhioqkMOCY564yFrD56H0FpyXYIk/KoUvhVQ9/ogFt8FbcB5wpMGCA9YecL5Q++2w4n7+e6miSv5Z2+C2ATUDWiwDRlLJeFvuLR5ly2tb6/uSVzLOlrlGj8zeb7uAQ/uMGOq+fNGFsq1c4/YW1wXkvnRdWJtdN195gTvri99xt39FrDiBWqfczJaNm9zbPv1F9+r9Jrv3vOlkgV+ZO+PyXTfoN+8AN378eP22Y234+nquaGcDbke1TSD2ZchNpH1G/hNeiYrccfvt5d98EFdVXaUfGaYnlV9xLDneRaWaOnXKlAzc2JgySB6ajZKtSNsH9WG1P/wnoRTUjRs3aDuPr5ZaFZX2twA44v0GGi9/3cXXfN+1k2Y7VtqrPvFTv59elG1dHNdbGO3I8otJm/QV/BLGPfDAA1pu4vbfeKaRpPYZPsR97dOflOvX6VrXr3Vv/dy2e1RvvuICV1JRrZPgFpWVu065z62bN7vTP/UFXX/TlR+Tqn+5AG7XdTTkBeBiuE2cOFHb3ihUuaSXG3Db0o4eG+lNtl0cl9Tnzy110xRwgrcARnsoWfRWmYQkEjDpSi2wHlwUVgCnbXDBurN2OLXgdHufVtfJv/NP3/qFcxNAS8oAkVQyPl7e1jr0UpZ7W5fNjx3X8rEfXazrsmlbgEOTRwxz133pc65p7Rr3po9fHmKzSwFXVevefsVX3W+vvsJ1yQ9aS2OTOz2MfbsxVF/PuCIF3DZlgDvqqKN0ttpMe1AOqb8Cbncc17bgl02//tYMSq4WWO+HTobIOvFhb8E1NTW5j53Z+4SL2YAWS/eTRcl4W86WPo7b3nq0reVs4WRc7IDaoz+8KKzNIrHQ+1JNNe07aoT72iUXuddf+MkQk103XQ7galyRWHBlHZ1SUMv1x+WUizwYXzV9H/fh973XnfqRbefzUpTzgDO40WPDNDC51vbW39UfwdtnIG5j6M2rP/mzEPKKARFre/HJ9Tu6jHZkGwv3FmdO29d+8FGNz6YZ7/qKe+SRRzRsZWhn66bLLnDFldWygzJX2tmpzRJStXKnXHyFrn/V1EkCuPe4Uy+6VJd3hfIKcIcffrhacLmmbO1fr7/ylhB6edVfLcveVFlZ6X596dYfdk4CLVYMC1O2OGTx29smuX576U29bRfHJ+PwcUDt4e9/ROOS2v899s2Onnwefvhh9XcZ4MSCY6wbPag/uPE2d+7bT9O2uDd/YtcNC0kqpwEX3xgst/3333+rSRBzSUmY7EhP6K4CYq4BDjEV0y2feH0Gav+8c6x79Suf03BScYE3bStue+l3NL9YveVj4WQc7oHvnB9ittYB770mhLLnsasB9/NLztX3m11pqfv+r251Hz79za6ovMJ9/6bb3N8enx9S7VrlPOC0GjLzLH0liw4G3lrIVb0UmOzsYSEGzFwEHM8Ar6Rt2rRJC3Q2wMUFPVYyPl7ekXUoWxzaXloLZ4vDStsW1A5839dDyCtbXqaHHnpI/V0FuJ998sPaBnfmZ77qjps2yb37lJPVwq4ZNsK99gMXhlS7VjkLOH2pnuELAXAzZszQwb32HlwuanfCpE9AtOsr6i9V5r4IwFGg6VzQuehEBrlsBd0Ur0um6+u6WNnitxUXr4vjcPffcJ4uZ9PM91/b67ZJxXG7HHCfEMDVDXBnXv5lD7g3neyqKstdzYgx7qT39w7pnamcA1xynje6tYEa1VMAl2vDQ/qzctF6QzwDDPimMDc2Nirk/vWfPdyrjsn+qcBscDD1dV1S2dZZHL38Fk76iDDuvm+fG2K21MEf6Pmg+rbyMWWLQw8++KD6uwJwlMkfffT9rrim1p155dXuuKl7u/ed/hb39it37bunSeXchJeZcTp0bYcwo+F5oPMBbkAl1UsT1VOmaUK0x1HYgBuQi0XBj8EQg2Bb67an3tLqmxnbgBs+7n/Xf3gruB3ywW9lnCm5PbJ9xLK4pNuVGl/PQHu+4lapyxwib7HsbuUc4FByMOKYMWP0QU6VykShb2nx3+TkrZa4QBtITMmwLSfT9VUxROL9ojjvpA/YcKZDP3RdxpmyHU9yP3Ga+DiS6XalOIayAfXu9Es/q8t3zH9S32He3crdNrhgVvPrfNBBB7mRI0eqJZeryrSJRe1e21MutYu9XOKZqKqq0moqnQ7//u84d9zR/lsMMVxiZYNIUsk0MTjidcmwLePfe92HNBzrsHO/vUWa2Ed9CfdV999/v/q7qg3utmu+6E67+FNh6eVRzgOOh5eX63N5eIhJIbcDgNsR7SgMc7X9LZuY7BQAMbU5gDv2qKc1fltQ2BFgkLelzwYd/Lu/+QENJ3X4eTeon9w+Wz6ot3A2bW/9rgZcf1DOA46qKdMjDRo0KKzJffUFLjtzWEg2+OUT4JhcE8cnBmmfu+Ou8e6Vr3gqrM2ubHDorXpnaWP/rmvfr+Fsir80HytejvMy9RaOAZvU9uLthfsUcP1MdlMYEgDg8ukVrV0Bl5cCxFyvClsn1ObNm7Vd7s67J2wXcEkZ3JLAsGX8/37jHA1nE1+bJw3j2GIl80NxXG/hWL3Fm7LlYT49qSng+qHsptD+xrTkDCDMF73c1lMShvnQ1kdTBnADcigb5Hqz0EzZQPGfr79P/WwyqJlDcR7ZFK/vLW1f0phsfdJH+mrXww+ngOuP4qaUdP/CvfKVr9SHN5+UT9XD/iIbF0c7HKKaam1xphhwMQiS4d6g9ooLv6frk25HZOmzbbetvJLrkvnEvrld/bJ9f1DudjuKaE/J5Z7T/ioAm2/iWbEBwICMnlQgR9icKQkDxDdMcUm4ATUsNdrV2AcfFMfHOrJtYyX3FStOn0yTLS8UHyOy5TjewhwTjuPDxWIAfXIQfT4opy04PgIyc+ZMN2rUqBCbH3rZq6h5akHSm0oBZ7gIioeMoBgI9lHmbDrqI9/PAMzA0Zuywcz2Y9rRZVMcb+FkXOzi45z380tCaEttb8LLXFPOt8ENHz7cHXDAAXk10DduA3s52r/yFXD0pGLF0ZtqIIiHjdzxtfeon01AzSCRhEVSvVloyPablMUn1+9I+jjOXHycc3/Wy8SSvBWUtsH1Lxng+KjzgQcemHPfYNieskFmdzX+5yvg7Pu4VM/WrVunANgZUDOgxWAj/fZkaZK+KVse20qbdGjOTz+hflLTz77aPfrooxrO5za4nARcfEN4wX769Ol596rWS4XMy20F9lfZmLhsk2Ie/dEfZOCwLahlA1osg0tyvcUjCyd9FIdNva0nHDuL2xbYTCng+qniG8I8cPvuu2/ak/oSlG2MXL5DMXPOUj076vAlCoUdgRq+ASWpGGxxGgvjx+FY21tGtr050+M//lgIbSmmJzfF6QFcPsMN5Tzg+JLWlClTUsDtJOVr9TQWAMKKW7Nmjbvrf3u5ww9ZmIFbNpDFPoohEcdb2NbH6Qibi5VMEyvbsjlTb1/I2u/dX1U/Wx52nAwTyXfA5ewYC+vWtgczVaq+io4GhnO0tbW5Qw96wv3vwcla6BlylHTExxBD2dZbGnsWY9+e0eRzGqfpbR0iHD/nQM1cLL67gDO4ZVNv55SvyinAZRurwxsMyYcj16XVp/tfpdZUqp0vCjnPDIWcMLJwHIcMBhZvaWJnIs/YxVAyH8Xr4vik4vV89s9cLL67YGBDyfzi40weeyEop6qoMdxsJt8jjzxSZxLJpxuWrU0sqbQH9cWL8XBYb/Skonsf2McdOWuxhlHyWUouG0Ri35wpDqO+1jTiNL19IYvvLli6ZJ7x8vbOI9/fQ0U53QbHGDimSsqHmXyzSS24lzh10o6CsBAAx9sMvJfKeDgK/d337e1ecdiTWwEAERdDg3AMl3jZZMt9sdKS+yRtNrDFH5OJ89uRvJNKAddPZTcFC+64447L6S9pbUs7Apu+WH29qdCGkfCDiFu9erUu09Fw9BFLNZyUAQTfnC3HPiLcV6glwYke+t6WX5o66JxvqJ/cR6x4eXtASyoFXD9VDLjJkyfrUBHC+aZdZU31CsNoss18hx5tt1hw8vy7/9yzpzvmyGUab8DA7y1ssnjctqqgBrRYD373ghDaUnwhC1lecZ695W/KBs1ssjR8VSsFXD9UfFMAW65+0X572t3VxUKonpoYJsIbDbyXCuDMgqPwGwDiMLJlc32BWhI62wMbsvTJvJPLSWhmU7xNMpzvUyWhvJiKI3nj80XABuik2vlimAidDfbs4MfVy2TYZuBgO3NxGgRw6Kmk+ms9lqwDauZi8fk/XDa4ZZMB09z2FOdlYXxccjaRfFUKuFQFKyAE5JDBCt/ctqCGDGb2Er9BDfH1eVwSavbpP/u2qeWFv7Oe4zgvC+PsnKiWP/bYY7o+35WTVVQUt8MdfPDB+lWtfFL8KlFvPak7u52skKqoiGeHr239+e/D9W2GJAwsbEpaUAYzRDqAlk189i/Ox8LJ/GMRn8x/e4rTxOEY2BaeP3++rkvb4PqpYsDR0TBx4kT9Fc0X9QVwfVVfQVhogMPyYgpzPgjNGw0GNXyUhJm5WPffcF4Ibals3zLFN7cj2l76eH0cTkItXvfEE0+oTzmy5yvf5oJDOQ84NG7cOJ1RhPFN+aZtQeelDA3ZSgLSQoIb4geR91EZE/fw4zPcgTMezwo0cwaI3qA268PXq58EThIuL1bJPHpbjsFGXDLdopsuDyFR9AOaAq4fKQZcXV2dmzVrlvr5qJdqWfUJhAU0RAQBNwCwcuVK9QHcIQfO2wJose779rkhtKX4UDMyiBhQcOS7M5QEFIrj4v2Zs3jTwhsvC6GE5L6nVdR+qLiKyjg4vqw1bNiwsDa/tDuqjuyjkABH5wKWG4N9gdkDj0x1hx28YAtLrTeoHX7eDVvAA6DEkNmWDJzx9ttSMl1yOYZavM7CC371afVjxZZabCjko/ICcHwXdcCAATp4M/nLmw/aXYArlCoqbW88Jw0NDdoGR5gZRehoQP+7/sPqJwXYEPAwF8Mtm3p7HuP0pMm2fTIuXo6hFscTnv/LT4WlLTX1rC+p//jjj6uPUsD1U8WAe8UrXqEv3OerUsDtXFE9xQG3xsZGjeOF+2ydOfFX6GOXtJhi9Qa1WDHUkvlsa9nAhuL43j4iA9TsePBxhfC5QFNetMHx0RmqqX15sHJVu7IKWUhwM1FF/e2nTwlLWwqoIQASW0kvBWoGF9s+zqe3MGI5dhZnyvYhmWnv/HIIedn4PHO8g4pSwPVjZSw4plCaeZZ2MuRjG1yyg2BXtI8VIuCw4Cj4t1/2Zh8x61/uiEMXZUCSBFtSgGJbsvVxuhhMFs4WZ0paaub35XsLyICWdPSwFsJ7qCinAWcWTeWR52g7XH19vS7nowxCO2NoSBKShQo4HMNEpAxoG9ysmfO3AFsSOMDBZGFLY8sGEVOch4WTwEzux5aT/uyffFz9WEAtPhbbf9KxDse+ARxvMqSA64dKzuiLhp14kdt///21kyFftaMQ2iEQFtgQEWQdDS+88IK+gkUv6sz952Tgw7psflLEJ9MYkJCBxVxSyThbNj/bh2Tij8jEsmPBYZ0i26+BGx83e/bsFHD9UclZfdGkSZP0y1o8tPmqXWVlkW/cuF4ogMN6o6AzDg6L5pHZ+7mD9put65LAimUAicMGI5NBxYCSTcltTBaf7WMyvX1rwY7DHIr3b87yBm4oBVw/l92gvffe202bNi3zq5Wv2hWQK8TqKaL3vampKTMOjoG+WHAGCFMMjTgcy2CSdNnUW7wp+c0FvrXANrbfeHs7nvi5Z73BzMBm8ebPmTNHw4UAuLwgwtq1a7WakSpVX4T1RkHnRfsYWjEwcNZOZ2H8OH0MEXPEGUxMcbrkOlP8QZnkh2Rsf8iOLz42RL5YopQDfBz7s3WmOK9CUF4Arrm52a1atUobi1Ol2p4o5DwrvMkAIAwS2YAWr0cGK4OIgYR4c3G6JNQMMAa0JNhwiHRJGLHMsVi87YNjMLDFxxLL8rNtC8F6Q3lRRaX9bc8998zbToZMh0HUGYB2RntZIVdRqZ6a5X/fQ/vqmwwGAQOEwSKbi9VbfKxs7Wq9fUwmlkEplu0rBmi8fTKvOI9C6UFFOQ841/FTN3PmTDdq1KgQm796KUNEssGwUOGGGOjLNxmw4ij899w/ST8dGMMidklLDMXre9P2oBYrmU9vYMsGtW0dQ5zPo48+qn4KuByQ3SQ6GWbMmBFi81t9gVKfQRgswkLpOY3F1Fq8qkVHA58NjAf5ZnOm3uK3sJCyQA0Z2CxtvD1iORvUEOsAm4VjH8Xh3vJAScAxKiEfp0ky5QXgqG4ce+yxrqamJqzJX+0sqysJwUKDnM0mghXHe6jMJAIkzBlMUByPi7U9sCWhZkrm05uSlmNvYdP29gPgdKhV1NyRAq6fKjazDz30UDdmzBgNp9q+Crl6iuhEoPAz0Pf+h6foXHAGA/ykS8pAsi1rjTS4bNsT19s6lARs7Jssj+3J0mV7xSuf4YbyBnBMWz516lQN57t2BpwKHXAUeCD3/PPPuwcfnaZj4ABB0lna2O8NanyoORtwLB/E+ng5W3h762PZ/rKtQ729t4oFZ2Unn5UXw0TQxo0b02EiqfokoMBwC6ZKYmgFsiEf8VAL0sUOsCXhBtT47B9fyYqHk8Sy/eHHMijhZwNUtrj4eOL8knkDtiTceBMCiy3frbZYeWPB0Q633377aTWVX+Z8VbYhIzvaflbI1puBhkG+DBBva2tzj8870O031c+RZqAwvzdrDagloYIMjAg/hpiJcLZ4tK3lOL9syvYyPrJXvNi+UGYRMeUN4IYOHarzwuXrdxlMvY2Ji7U94KXtbyU6my+Dwyn0s584yO0/zfcusrw9qOFQEj7ZZGnwzZniMEouZ1O2NNnAFkMtVgq4HJPdrL322kvfR81n6y3WtiDV2zCRQhwOkk1YcfYeKsKCO2D6Y1nBRtWzN3ihbOsMQvixi5VcNvUWb7L1fbHWkmLbhx9+OAVcLslu1vjx47WKms8ziiT1Yiwx2wYIFiLwrIrK8BDabRVqWaxhvj5vkDCo2PKOQM3iY2WLS6q3NNmmT7J3VnuT5YXPdOUp4HJI3Cx9OGee5Y444gg3ePDgsCb/VehVzRcjLHw6ErJZuTHUTPFycl0MDtz2xqzhssExm+Jts0EN7QjYzNdxcAUEuLzpRUXPPfecNh4XitQSE8j1VTuSNl9lhZ2qJwJqWHB8tNmsOxxhW47DJvLBxb2vljey9UAv7pXdEQG2JNxslpFscMt2fLGLx9YVinIWcIzG1hHZNhq7vd2tW7dOe8UKRb21taXqXYCKF+zxDWoIOCRhZmGTQSKGWjarLVu8wcf2Y8vZRLW5N7DFSubF/mIXx3E88ecCC0U5W0XNzOwbDVjk9RveaMjXD0AntSM9qml11os2WqbXov0NMNj3ULMBJ4ZF0tl68+P4WDGAkkqmT3ZyMHVSb3mabH0235zJAJdWUXNA2QYscjN5ePkFLSj1AjcEBLVquo00hSbGTJqVhixsyzxHWDyxi62yeL1ZcjFIEHnS3tcb3FC8LoabzQsX52nHFx9j7OI4OzaLR9s6jnxW3vSiarhABvtmU28WWrZqbCEPF8HKp+DbEBFmErFpkmIXw8zUW7zBI4amKZkuXraJLpFNdNkXWR5xXoTNZZMd19wFBxeM9YbyDnB8XQvAxW0nhSIg95pXrdAhEHxCkcKcqkcUcqZJop2W9lpgwDxwyZlEDBLxctIiQuSH25Fn7ZEffDSEvHYF2AxmsbAyC+VLWrFyHnDIbhqAO/DAA3Xyy0IDHJ0sgI2ZMZgElHbI1etf97K3u/3xmj+611/8+rD08suqpzbFPTP5HnrQE1uAInaALVYMNQMJ6WLFgHn4+x8JoR7tCNRQnL+F7fh6E8fAeqtCz5s3T+MLDXB5RQEsltra2oKDGw8zVgmAK+76uXOl71K4VZXdkvks3sul/gQ3BNQo+Fwzg5dBIHb2jQNLyzNFswedFMm2NcKWxsAH2JJwYwqlHbXYskEsGW/7jx3HzrnikpDOjEAoAOUVCXj4qqqqwlJhiQK58MbLXNeDP/MdCuLocHniiScy7U0vh7Dg+pMAkBV8IICSUAMIMdAMasTFMpgY1B763oUZZwJq5nZESbCxHFeTbd+4WBw/P3YGNju+QoJarLyroh533HGuuro6rCkM8QBjvTHQeeltn9U43kmkUDJynXbJPfbYQ+MLWVbY7T1UYMF7qDOmPKzrDVTmWM4m1sV68LsXhFCPsgEtCa1tydLG28Rwi0U8MDM4m0jHj15S6XRJOaYYcNOnT3djx47VX91CEVXzNWvWaMM55/3Y3AMyM9QyewQ9y+PGjQupd6/6UxscwMJKW79+vc4mgubMn6kv2vcGtRgmcfiB75wfQj1ibrgYSKZscduSpe/LdmZ9khZn57HgV58OKbwMamknQw4qvmkU9oMPPtgNHz58iwcyXwXQeLCZ24xvDKCHHpuu/oEzHtd1K1asUMjRg1jIsueB6wHoWH50zv46my9gM0CYkmHW9wY2E2nMT+YXy/JLKo6Lw8n0BjZk+0lCDU0/+2r1C+1rWqa8a42nesoL9709WPkmHnKrWvGgx1UUlnF8d4BCbQWikMX1wVn7GrLrF/sWxgG1+284byu4AbYk3Owe4LNtLMsPx/qkknFxehN5W/saYh3V0CTcANuMd31li30VGtxQ3gGOhzZ+IPJdVpA4bytYpniZApssQIUmrgFwAG44e05imMVhoIaLZVAzsHFNuc78eMTX2/K2vGz5xYr8sTpjsAG1+b/8lC6bYrCZOKdCVd6dOW0r9B7ubtHWlOwxjJezrd9Z4qGnwFK4qHLZ7LSxGD5jFsvu1K465xcjA41B7IFHpuog3zjuvm+fm3GxmM13e1BDlpc5lpOK08fKltbAZts88YtLFWr4JoMaHUs7sr9CUF60waG4o4HBvqNHj856s3em4sK7Iw3pyUL/UhvhARe9gsCdXkEAF39nYM6cOe7II490AwcO1OXdKc61v3Qy8GwwhIL2Sp4Ne9EeACSBhoCaiTSxi0Ve5pJKpkXZ4ky2LgYn/ryfX6LhWEANxftN5k0+AHLu3LkFWUXNP8DNvtmNPvmTbsqUKbtsTJwBqj8UXODGHHi0sSF6UJOA4xUdPqk4ceJEXS5U0QEVv6YF4LJNQmBgI03skjILzQCTTJNtG7SteHO2PPdnn9RwrGQV1BTnSxiwUSVfsGCBxqWAy2Fx8zIP68yzdNokelJ3pvoT2ExYJQx7YBwcigEXF94hJ3xEe5dJvzvVnyw4AEfzxV+uenuI6RETYBpckg4ZUJJQM1m6WNniUG9pzWX7lmk2ay1WnKeBDYeefPJJ9VPA5ah0hHY0J9qAY8/Vamq+f2ELYcExcJV3K7f6vkAUrj/uPK2mUkALVQCOb6H+7Ytnhpi+gQ0Xg83WmZLLKFucKV5nYfxsH5LpzVqLZXkANoMbol3WrDeUAi7HlHz1xAYzMqiVAb+FMO6LgsdD/efPnxFiIgXA7XPG57UaO2PGjLBi96m/tcHRTonFCxQefnxGZqygOWQgwxnYTJbGlFxOKtv6OM7CyRl8s30dq7e8rCMCsLFsvcQ4midQIcIN5fTP+RavnFCYg+KHohDEQ515iTu6DmjS2z6n6wv1Hd2kAAFAwKG4JxSYAQWsYhzhlwK3bIq3IRx/d4EpyQGb9YZuD24cOz9cDPAGbhwvP+pYqoRT5cEwESCXfLeO15bsAc5nUQB48Ddt2qQP+JQzv6jxQA2HeNCxXArpYzzZxLXimaA6b0M8UBJqOOKSygYYg5C5pJLbxMvxdxfi7y1kyyuZj4ENRzgJtm0dU6Ep73pRNSwF+uijj3YDBgzQ5XwVBZE2Jd5U4GFfvOxIN3mv/2WqVU8sOtRN3/chHSLAV/95R3d3Ke6QsXBv2tVVWLsemzdv1h8/wsTFr2nF2haYelNftoln8EXJj8hkU5yPDfkAasRz3OZ6UyF+hyFW3gKuEL6RyoONRcIsIhTa+YtnuWmTH8w88LxIzkwZjIM7/PDD3ZAhQzR+V+rF9DRvD4DopUDQrgdtb/wgcK1of2NCgqS2Byq2zQavbNslgYbi+eBI01t+JtbhAFs8Ng5LrTewWRr8uA2O9thkbSfflTeAQzHksFj23HNPDeerqE5hkTBEhIIC0GzsG5r9xEG6zEM+bdo0N2HCBE23K/RiwLa7BAyAA4Oh8RFvMcSAMyj0Rcm0yeXktORoWxNd9rZvs9hYb2msCtqbLB1+Bm6JUQaFBLnebdscF5+Fy3fxoGPBxb/mxOFYZhogIMd8cExZHRfwnSXAhgNs/RFuphgS5puSy9vStrYFbEm4vdjJLmlTBW4m7jE1E+5rb4CzY8EnDWCLRxpka6/Od+WtBccEjwxszWdhwT3//POZcU8M8mXYA+Ihx2UG/M48S9Mfcsghu6Wq2p/EeQMLXtEyaDz46LTMnHnbA4apt+Uk1HhndXvbmuJ4wtb5QRi3LaAh29580m71WpdYb4XY/obyFnD77ruv22efffSXLx+lv9Dyi84rWtZD+sjs/dRq42HPjKuKqib0rE6ePFnDhSQAh+XKK1p2rQxwvcmAYUouZ/uYjL2Mj7a3PYrjOD6WzcVgy7YtsrQofvneZNZaXC4KTXkLOL6sxSSP+Tp9OUMCsNxog6PQUkCw4AxmGQng6HhAvIc5adKkTHW2UMQPgb2DGltwfE0LJQGyreXtgc2UzAPFcRbGjx1Q681is22QhbO9hM84Op6HQp3kMlbeAo5R++PHj9eHOx+FVYKWL1/uJ2KMLDVkM7nyoV+Lrz7qA+6www4rqG9WAHOseN5giNtl6WSwzwXGSi6b4g/JoORMI0ltL46wORNgy7Ydsnjzs4GNYSeAjWoujuFBKAVcnshuJFA76KCDdMqkfBWFlocYwMVtQPFL2Vu92zjzLH0fddCgQSEi/2XVU3qabUp3lOxFRUm4JKGGYrCZtgcllAzbMn7SYovTong52+wiBrYYbogvqqEUcHmiGHAv54dWdoewTHjwn376aQ8yseCSE11aO9y0d35Z0/LAc13ogOmtGpRvsuops4jYh2aywS1Wtq9k8VI+SsInqXi9hZM+6ms+5ifBZoOEWQ/QDG4sc2/tQ8+okAGXV40xCjduZnu7W7JkSeaXLB/Fg2wPs42xMmgRzwOv1VQBn/26Iwa7cn0KQXY9+vpuJmBLwg2wGdxQX38Y7P7gbDkW+fSWV7wNYIvhBtgMbjzf3EvaFQmTHz98hdbGui3llQWHYivuqKOOcvX19WFN/sja37BIGPpAQaCDgUG9hJOONxz2nnC3zgs2c+ZMN2LEiIIpBBR64EZHDNcKxRZcNmvtkA9+S32u3fYUp4mveazt5ZPMI9t8cAY1lKyKIoOlAS7tYPDK66ccayUfxS82DzEFNy5Q+Gat4UhH9QzxS08hoP2tkH7huSact/WemrJZa4DN4IYMGiaWk3HIrnt8L2Jl28YUp6epIQm32GKze8q9JGzHY1Djh49noi/WaqEoL590G72dzy/b8+vNDBIGM2RhCgEWi02jg57+7VUF+fBT6IEIb3ygbN81PfRD120BtlgGEYOUAQnfrjdhc73Jto9l6QFbskMoBhvpuN/cV7vXBjbz7d7iCukHbHvKqyuRnAAzn+dA44HnQebht4ceaw2o4Vj/zO1fUGeigBTa91EBALC/51sf7IHb/a9SqJmLRfqkMxnEYrBZ/PaUTGPL2wIbMrDZPeN4DGw4AG6Wm4HNnodUcr3ypQ0u+c4dbXCzZs1yw4YNC7H5JR5mpv8BWAuePMxNGHunPtjEP/Wbz4dUQbP+5aZMul+D8+fP1+ncGQhtBSKfxXOAFct7uHzjFKDZGLi+CBAl3faUTJNtm8ybJqIYaKYkRFEMW+4dzkBnx4ZjO4DIy/ZpG1yeKPMiMQNeWZaHmp5UIJCP4vyYB87GdvGQY60l4Tb1rC+pbwUCYdkWAtyQQR8LZ9aHr89AwsCQdCYDRQwa3PaUTJNtm2wTXZpID5zYJ0oem52LWWzE2zGynVl8NpNIoSuvn3JeY7JPxOWbqHbZTCJo2a/9DL4mxr7hYpDZdSiEb1WYOGeDwvZEWpwBA2dxOBTDJilLk01Azdz2wJZtX/gGNhzL8Tbm88NnHUumZNNNISlvh4loWKonxx9/fN4VaNpcMq9oJWSvaFnBoBDw4DO7r76yNfMst9dee6ljfFi+i+vA9Vq5cqVei/se2le/Zo8MJPhJtz0l02RbjquhKFtVFHF/UG/7BdBmrSHS4QyGOKw2c/FnAuPX9wptqiSUd4BD8Vi4E044Ie8KMgV28eLF+sDbINDkdzOtAGTeWQzvqk487UodPsOEoDU1NX5dHot7T6Hns4pcGz72DOAMDEnXFyXT2TJ+EmrIBmJva7tYtrw9sCGrkmK5kQ7r7slbrtR1sQoRbijvG2KSD08+iHOyh18/LyfwsmXW2UOPyyjAjTQADj/fZedIdR7ZswAgYke8rQMSsUvK0pls2/gjMibA1ttMvpZPMj/EcfMjhm/HYMfKvWUbwlRFOTfuM+lppkjCLdM2XaDKawuOQa2veMUr9Obni/iF5sFfunRpiHE6qSVvMVghSBYGCsmSp4/ybzNQAKSams89zLGw4rkG9Dbj04N68AFzs4IlqThNMj3LuGxQ603byy8JVnziuZf45rivWGyEeRayQQ0Veg8qyuuf8YEDB+YV3Ew84FS9KADAjS9nmcVmjjSsNyCiuCBQaApBVnXjGtg5A4btKU6TDJNP0mLblrWWVHL/LHN8OI4Vh7iH9iNly1ht3F/SLL3ts1vcU9pfrakilVdeA44pcngY8kk85EDbLDSLwxnYkPW0Lb75CnUm+3Yqlk2hyABioDCImItFGkuHbJnrzVey+gq2ZL6x4nWE7V6Z2BfOjoN7alVRBNSygc1+yFL1KK+vCC+j5+vIfSwTe+DxcVZYzBKIwYaAm12LQuhBRYCcsYIAIoaIKQkzk0ENl619zT4mE+dJ2FxScd6INHafTLZPfHPxfU7+WMVgIx+2tbSpvPIacDwcfPg23166B1Lxg4+sURq36KbL3cIbLwtr/GBfPgjNrCK2DekKRXz5PwkdA0i2cF/AFsuuezawIcs7Vm9gs2XuE44w9xNnisGGs/Q8EziUtr955f1TzoOUT9UxLDSm3uZBtkJiVhtQW/CrT2scAmz7vuMLW8EQkb5QxA8CEHjoselbdTBYGH9HwMa1N2eK84r3ESvbNnFajtXAxr2Mf6iSYEMx2NiWV/FS9Sive1ER3x+gJzVfxnxRAJ966in1KShYZfFgTsQbDKzngceZ6EmdtOc9Oobu1a9+tausrAxr8lf8uDEPHG99ALiZ+8/R+BgsFs4GtVgGph2BWhyXbTtE2OBKeP4vPxXWeAE2tjWHuK92j/ER62wm39SC88r7n3HamrBw8kVmiXFO2QoC7Wz2q87Dz0PPr33yGvAeawy/fBXA4E0WA0oME3NJiy2btWZWkwEGkVfsYlkc6c3F8Sb2z30gjk//xfc0abGRB+m5v+bYLtuxpfLKSwsO2S8Yv+D58qEVHmIecL7DEE+MSEGwgoJvBShZsBYvO7LH2pt5ls7uO3LkyLwtGFbo6U1n0oWs342NlPz8X3z9kF1XfAujOLw9JfPAJb+3kM1iI13yHiePD82Z4y3U1ILzymsLzl4yppOBhyLXZb/UOH2vcda/tDpqv+ZmkbHe2uUQhSHZo4pInywg+SKzWOlBpZPB7n+29jXAZnDjesTX2WQwMvdiZNtZHvxIxXDDWktabIhjt3tM2I4xX+/dzlTeV1Hdw7/Q9xDtdZ1cFg+0VUvwkVVFiUsWDCtIGSXa6gYPHhxC+SezcphNhjBgS8rAZsCIrx/Orl/SmZLLfZFtE1vgBjY7jvj+xWBD8fHFDpn1lqpH+TebSHJqmFAVy4cPrVDdpqrFTCJAbeGSw90+E+/d4iG3Ahf7GestvHC/11s/o3Pl7b///jrxZT6+7YE4r99dfmpY6pFBza6ZhbNdu2QcisOxkvcglsXF1iPvERMfH4spror2RaRLq6dbK38tOCnM9k5evnxohYeYKpdZb4jzSp6bFQrGTsVVU95FVcgFAUqbMDMfBTQOO/fbGtYqqJw7H262a2YuCTdcNrjYulgGJwNUcj2yOIMbYNNJEkS2fxP7xSq3/cf5J52JdOSTamvl3VXJNnsCD0w+iF91hjtYwUQ86FaA8HHJgaF7n/5ZdUmNHTt2i4KSrzKoIWubjIFg1w2oJMFm8XFcNsiYkvHW5oej3dTAlkxH/nFVFMXHmFR8PJxTspecmkwhT3RpyjvAJQXcnn322bxogwNwWFw8+FY47EE3PwYbmvS2npl+47QMn6Hanu9zwnHNKPyMgZs1c/4W1w0XQ82uD7J1yGAUu6TiOHtn1dr94hl8s21v1VFTnMbCyW0QzwHVcHMp1LZW3gMOMbXQ888/v8UDnGtKPuDJwsiI93jUO2DDWbo4PXkxK0Vyaut8EednE11uy1qzsMWbb+H4mhM2Z0rGATacKQZbNnEMwA2xz2T+25JZbebi/dLOmq0mU4jK+3FwGi4rczNmzHDjxo3r8wPU38RDTGEA1hQG3mDYd+/7tng1C+1zxuczBRTFYfTkU69we42/S+OxaidPnqxve+STzLJheIh9dOj+h6dkvmbPudt1SfqxentW4ni2e+QHHw1LXja7SLY8EfHb2q8pXmdhAzaO49gCbCKglnYy9ChvLTgd5Cs32gQgchVuiGMHcPFDH8MNsOFikZbtsp03c4lh1T733HPbLGS5KKvu8cPGudmyhfGTzmTXK3nNssU//P2PbAG3vswJF+8LZdtXNpEmttio/sZwY3BwarFtrYKooqK4mpKrsoKafEVr8tuvCqEtC1Cy4Ni6Jbd+Rn3Ea0x9KWC5Jmt7iwFm4dghg0xvzqwlHAJsOBOvdcVWW5x3LItLrsuWNhb7t3Y2OitisDF+zgZ7p9paBQM4fs1zXcwikikM979KwYaLC0hcME22XsHGYN9oqEg+XJds4vzN4rXztzAuvk6xM9ly/MP40Pcu3ApsuDjfpOI8Tck421dSxJnFlg1sWG2cIx1p1p6aVk+3VEEAjgcgH8Z70aaEmALJIBUXqriQWDx+cgbYWBSefBPnhLXb2NiYqZKaDCaxMxEGaLHFxraADWeKX8ZP5o9sW9v+xcisttk/+fgWb2EwzMTePcZqA2w83wsXLgwpUsUqGAuOB4DXdnJZPPCotwKbFIN8s4JNrDgbF8dUQlb1zRdxLZqbm3VG5+3BDWdQM7CZHvzuBVuAjcHCMdiS183y6ovi/cQiHkBnAxtWG/uMrTbOz56LVFsrb3tRkZnr1ovKa0m5OlU3DzGziFBweah5TYteVGSFOPa3eIMhGuRLAWJWEXpSEXkyX15tba0u54M4RxwdKAaShx+foZNdmizefFO2j2nrWxAi4GLXOFYSasn7gbJtl4wjH3vbwcQwE9svDrhhuRGOoZy+ppVdBWPBDRkyJGfhxi86v9jWkJwslLGSr2cxFo70uLggUmjID8d0QvkkK/x23ga3+DrEPgJsSbgBNpxZTTGQ2I77grM8kKWJ06I4TVKs4+X7GG6ADauNfSOz2rhfpOcHj31zDvipsqtgAMfDkaviIaY9yR7uBU8eltV6i99isIG+pLeCTBorMObznm59fb2G80mcK+eMQ0mo2fW4/4bztgIbr3YZ2Ljmdq0Q2wMXfFN8D3ZEHANgozoay8Bm94uqKMfBMjCz/RtgU8D1roIAHHBjmu9cFQ857UlWWJPiDYYYboyHowBYYbaCQiHBEjA9/dur3NChQ/Oqeoo4b87Vzt/icKZtgc2qgQY28mDbJNgQ19bcjgioJcFmVpvlxzHw7BKO98/xADXCKdy2rYKx4BjUmquvJvGA2y96LJbj17Ns2IgVAoNb3G6juv9V7unnj9Ug6wwC+SJAwHlxHXAmzh+w4WIBNjoPkmBjW/KiDTcGCfnELla2+2Sy67w9sNmPEb7BDBeH7R6ThuNGafvb1srrTgakbzMw9mvmWe7YY4/NuZfLeYhxfN/VegWpouo5RWLoCOlMpNsKbKKnfhPedpj1Lzd+zB3ayXDYYYepJZcPAkYUesYM8ioa537fQ/tudb0QYDMg4ZtigJjsGuLH19OWLS7eJinWxT2jDA6O92uwsvziY8C3ZRzrSW/bzJ07NwVcFuW1BRfPrICpn4tj4XioEYUOJd895SMzuLgw8MBzvgY34gFbBm6Rxo8f7x566KGcH0Jj4ryxuuhQ4tzv+/a5YU2PzGLj+nCtgATXiGsMIJNVUQMO6fBNBhiLs+uPb85EB4LBDbBZ76iJ4zC42bHYPcXPZrWZA26psisvLbjklDH2jt6AAQPcoYce6urq6nQ5F0SBYw44LLi4agPUrADhWwHkgafgxlr2654pkyac6tvqnnruld6C++1Vat0eccQReTOFOYDKNpOvWWwxlICGObueiPXmbNkUb29i23j7WDHYkvnZ8SDiOA4T+cXHxXpLb8eAiz8VaJZq+l6qV15acHZz1Y9eSxo+fLg+/LkkHmDGvmGZADWVnJM9+DgedqBmVhuyddngZlK4BVkhygcZMDKS6xVbbMistaTFZtAwF8t+POJ4tiOvbNcPsOEAWww3E/lZHNtbPrhkvpwT6XEx3EiD0nngsqsg2uBssO9+++3n9thjj6wPY3+UPfR8w9Re0yJu7oKD3fR9H9IH3B56Kyysx8Uv1O/5liu2KEgx9FRiwTHYd+DAgSEit8U1o72Sr6lx3o/O2d/tN/URPXfAYY5lE+liZyJs19Zk+cTbI9Ik29hQvC0iP2TxcT6EzSHSALQYajjWc57zfn6JpjOlltuWyksLrjfFD06uiOMFzvgUKoMbhQSLDWcFxgpdEm4o27lj0ZlVZ/Om5bo4R6wszofrYtcGK603iy0JEMQy+cQWG3mzbWxZmXgRPq6KZoOb7cvC5GHHYWG7h4i0HH98bDj2T1tsDLdkbSWVV8FYcGjYsGHuoIMOyqkJHmksp0dw9erV+nDPmT9TB/nGhdcKRAw2FMMNsX2sZc8e4yaMvVPHCNL+dsABB+T85JecK9eFYUHAAuuNiS4NJMhAkS0MTMzZdWNboBKLtMnJJqkGW16mOO84bHkjwvEy6+0YbNm2SU6VBUgffPBBDae9qFuroCw4XkniG6kGhlwQY/eADg871gQyq40H3n7xY7hNPO1KhVuy4CSXkfasPvwL7UXFWSHMVdn5maWGYjgZLHBcUwtzPbmuXGODG9uRTxJuTHKZDW4ovr7kG/sovgf4scWG2DfHktwWiy2GG/uLe2JTuGVXQQEO0S7Dg5wronBZwTPAISsYyamQgBuy9bEz0QZn7XBUUced4oee5MPklwCJQm9VSQQkcMTjbBkXg41lzp9tsZzZPr4egC05Pbm9r2oij95keeEnwWbHYsCy40PZrDY7F0ufKrsKDnDxg5MLohAwTIRCaA9zDDcTYOODzlZ4THEhQkxVHsuuBekqKys1nOsCFMjOze65LXMdARrXFEc81ww4GthicW22BTbLN5bFZVtn98T8JKhsG8DWm9VmMMzVt3N2l/K+DQ7FPamjR492++67b060NVHQeIhpT6IXlQLBVEfJUfkGtt5EgUm2z41/82X6uta40f/WZaruRx55pKuqqtLlXBX3mEK/Zs0aPe8HHpmamSbJoIDPOq4Z1xi44SdhxPp4PjjEWDoUpyWcXE6KOLtH5nMs8bYWfuIXl+qyydr24vQG6AULFmiatIqaXQVlwcVWUC6IgoD1Ro9gbJWZABtzvZlFl3SmGG5xz2ks3vJgxpJcFwXffhgAAQJoZq1ZNd+qoXEbW3ztmJo8hhtgM7jFiveD4nCsOG/SGGQtPT69ojHcAFuyOooD4LyGRl6ptq2CsuAQD/UxxxyTEzNoUPAY5EsvZ/KDzoAt+YDbshWaeF44ZGCzgvXM8uMyFtwzzzzjJk6c6Pbee2+9RrkqYA8A6HUGBvSiMqyGMNcTR5psPxhcP2bxjXXwB74ZQj3X1a6fLZuSy6b4PnEccTrCc3/2ybDkZR0WrLP0OKBoVVI7l9mzZ+tyasFlV0G2wWEV5YJ4oGn455hNgI153rJZbbFiuNE+l4SbKd4OKOTDtyuweLHWDAZcK6AdW2zJa4e1FsPtkA9+S10srlsSUChbXJw3sm1jEZcNbpbWrDzCnAvOziW2PFP1roIDHLJqSi5Jpx1PvKKVdKYYbvFbDHFBJB/GwNEO98ztX9C4CRMm5NxsK0kBNoYDAQcDADDAcc5JAbUXAzaLw8XXPnkvEGltW/OZ6DKGG2DDWZ44xLNKdZRlzgG4cV72HKTatgoScLmk2ApBcQFKPuBUY+OqrA30tQJm21JAss0uwqtauWwV0K7G9bL2NRzK9qOQBNuhH7pOnYnrFcMmBhTwNACRl/kWNtl1jwXYcCYDW7w/CwM2a1PkXDiv+FzsmUirp70rBVw/FQ8vDzTVRsL2MNvDbYXJwvHElzbQF8WFkzy2Atj9r3J7vMkPRTCY5qq4DkDBLLaHHpvuDj3oicy1QslvLyTBhgxM5iwuBhsiX7s38T6Ssjzi2WAMbCgGGwJqWKKIZ8CsT/Zh+8TPxZrI7lZBAc5mXLAqTH8WDzFtSbQX2oONLGzLKJ4jzgb6UlisMJKWgoJP/BYv24f3F8eNG+eefPLJnGmfTIrzs3Y3rp3JrlUSbLM+fL06u452vZKwwc8GNqsm9ibbHiWnJ4/fUyVvS0uY42df5A3Y7L4Z1HCs51wNgql6V2H0osYTX+73NjdixAg3c+ZMbcDvr+LBZkYMxsCZ5i+e5aZMuj8sbTnCnSEjVlDiAmoFkWWcDfTl7QWWn13xqi16UulF3WuvvbRw5ZK4XgCC77zaj9f9D0/JOpMvYEN2jfDja4ZYtjiDINcxhlq8fax4Of5SloENkSbeHmvMlmN42r7N59xIi//EE09oHFXUdB647Mp7Cy4JN8QDxMPb35WsmiALZ4Mbjgcfn+1se5YZCxfDDVmesXiVLVerPtxXs3iS311Ah537bXXIrlcMMkTYAEIceXENydeggyy9+UkBNoMbYOsNbgYsluN7huxe41hvFioOSxuwpfPAbVt5bcFtcfOlKmYNscyaQY8hD05/FY3KjIFbvny5FoB5Cw9x0yY/uNX8Xwa3GNhWyBHx8UBfg5vJxsKRx7PPPquzHjPjSq59aYvzBQ7MvPKvr7wrxHoloRY7i0+CDgFMnClOH/uxss0HZ0puZz8kLLMfu2f48bMJBM0Bt8WLF28FttRyy66CqKIi62miEDBtObP79mcBOF7PYqpyBODi6hbDRigYcaGMCyRxyYG+2Sw30gG5PUb9SwHHdO4ALpemdTdxzX776VPCkkh+1A472L/KxHkmHQIaBjcDCxZUDDYUb2OKl/sCNkSYfVqY/SX3ZffH0gJCjo8OlCVLlmStlaTKroIE3FFHHdWvP3ZsBYz2JJvCKAZcEm6WHp9lXAw33jslLgZbLP2EIHnPPMtNnTpVP0STLHT9XdxXzi+eDut/D052s2bOz1wTcygGG4qvIflYOhRvZ7LlGGxoe3Cze4ZsX6Y4TDqrulI15Z3T1GrbcRUk4I477rh+/7K9WXD/vPrsEOO/Vm+FBEeBoFDirFBScONZRrDa4oKTTQY4CsyUKVN0MoJcE9eLc+cle3yuBZ0MTHZpQLHrY9cPGdiSQCdtvJ3Jwkmw2ZCPbGkR+7Nl7kd8T5L3xyw2HFZbcrxiCra+K+87GbJpewW+P4iCSC8v3ztVSXWLB94KKAUSWJvlQhxj4WK4Yblt71ztwzMUGiwEhoow9i7XhJVD26O92mYwsTDQII3Bw64fYGQ7k6WPtzcRBmwx3JgyyeAWK96e/Zliqw0/DpOOY8TnOLmfMdy4RyncdkwFCTh+5eOHrj+K46Mw4GO5WRwFwcBGIaUAAb34DQbAhtue4q9qWfWHad1zcV44uw4Ai+tk99fAZuDgmpGG62edMTGMzNmyKf7mAso20WVyu3h79sO+Y6CZQxwnx8822pGQaD9NwfbiVHBVVEQBPuSQQ/rt19x56IEbPYLPPfecFsylzxzt9p5wtxYSHDJrLtnetj0lrbaMZp7lDjzwQJ0zzwpeLonrwpRPDHV5+PEZ+iUtrhHnYtct2e6VDUzIwsmpyZPzwcXbm+J1KHkt42Xun4ENP34jBaVge2kqSAvOHvr+KgohQ0SsPQm47TPx3ozVEReGHYEbYIvhFsuWgUB/vja9iWPGCuItFaw1xHWyaqhVRbm2ti7p4niUhFty6iTgZGlRvC3imJLX0pZJZ1YbYh64GG7cjxRuL10FCTjUn3tRKTgGOQoowifOfvHjwtCXKmlcHY0LjobD61qA4dFHH9Vwrolrg/XGNTPIcM3sRwGwGIBiF8uWAVsMt/9v70xj47quO35mH85w32ktluq6arrEaQK0iIHC9rcUDdAPDVAUbbogqe2icmAktYsajhxFje0uCJC0MbzVdtRGRr71Q1u0AVrXQIDUTSw7spBAUhxLrSNRIimS4jIznK3nf869M5ePQ0qkJGpInp/05t335r07NP3mp3Pu8h7E5uWGY/D7D89tVVeUUHZh1IZy9PF/JrYbx44VHIZgtCu48JFG44uJxe/DlwJLtL2tFf4LFUZtoNWXR3qXOYUHqH+rzkdFROQjNoCyl4qXkF9a7YuKLbx1kpcS1lH87zpcPNHtsA6ILZyRYmK78eyYNjjg2+HwBcDzB9r5Se74GU+fPi1lPOwZz0INJ9UDyM1/efyXNvwyRXvg1iIcRoNhIpiTulXwERpmfUAeiOYwRAR3EvG/Fy8xT1iOPlAGdxfx76M+L6TwnPWCOvz54e2SgInt5rEjIzhcaO2cogL/pcK/+CCUG8SGO/SGMkPZb+MLvh65Rdlq07Tw3+vvRIyyFwnW4RLuA9HHAPpbJ/ljwmjLn7MRfB0glBv+v5jcbi47NkVFW007g8Z+/yULiYotBPsRzYSPBtzIF2irTdOCQHxa6uXky63W+D1FozZ/hxHUhd85luh56wXnebnhdklRuRk3nx0rONyKqJ3BFwNtNGF7W6unYXkgRNznzQ/0vZ7oYKu1wUFGXu6QSiimcPFiwxOzPBAborbVxObLa9HqH5zwvPBecNfz/8VYPztWcGiQblcgK0zRCVlNbkjJ0G4W3jHker5AvicVY8m2Cj4t9VFvKBeU8X5UbLjDCOQWis1HW9E6VgNiW0tuWHu5mdhuDTuuk8FPWP/533ua9u/fL+V2Al9SjGTHdCmMgzv7/r3ycJgo+GLhWCzR8VMbIRwIDWFiytPdd9+9JR5Cg58XbXD4nXm5YKAvHvgcfXDzRw8+IyLDcVj7sicsr8bVIjaUwxtdmthuHTtnJoMfse/GfMVrR+nee+9tq0n3PhLBEBb0CIKo4PDlwnEQW5i+guv9IjX+AfjIJ7fELaWAj9pwYwLc4h1Abv4fMg/EhuOicvNg39UII7bo8X4bay83E9utZ0cILpyOFF508oVuwcc/NulKmw++sBiwiknvwAsuFBvWYa/qdYstlL8THO4JhylbWwFEcEip8XvD7yZ6q3Kko6HUQhn58lqgzijheb7s56qa2NqHHRXBXeuFdyvF10pw+/e8Lg3o+KKdPHlyVWFvlFBwfizc6Oio3PnYDzRuZ/AzomPkW0990u1RWqWjYD1iaxWxRcvhJHyTW3uxo9rgrpfNEB8Eh5s2jo+Py/Z7/3cPHbjjO/JlO3HixA2XW0i0He6ee+7ZEkNG8Dvj65j+9chv6w4WNe7kG0Zs4dIKLzIQpqKe8DxfDmc9mNjaExPcDeBGig9fyFOnTkkZX9zTP75bo6pAbOBmfKGigsOTx8bGxmS7nfEyQtslfn///b2flRtdhnIDreQWFZtPR1sJDaBsYts6mOBuIquJD7SSH75cGL6Ch4r4trYfnP7lZe1JN/MLFRUceplxC/NoNNOOIE3F8ysgoP85/nP04Q+ekP3YDgXlWU1snqjUQDg42MS2NTDB3SLWivrwYBGko0COc4K72V+qUHAAkrvvvvu2xFARCM7fO+/4iQ/SL/3i9zckNhCVW3TWg8lt62CCazNWiG+T5OaJRnEHDhygO++8U7bbFcgNA6MvXrwoQnrrnbvoQ7/wtntXCcUGqWHb74sKzRMODAYmtq2HCa5N8W1um/2ligpu165ddNddd7WMdNoByA2zEPD0MfQ+g7dPfqghuLXE5okKzsS2fWjPq9aQL1U7fLHwgOx2lZsHN06Iyi0UGX5+iNC3a4aEckP7p8lte2GCM1qCCBLPR23320oBtLuFeLmFYvOya5WOQmyY0hUdz2Zy2/qY4IwV+PT43LlzKyb9tyvRiA1SC8XWCqS2JrbtjQnOaCBiQ6cGpmxhSf4B/cfre9y77UcYlaEMoQGfikblFkZsSGvD8WzAxLb9sE4Go8FqHRsrenYdmzF1bS280HDXFdyBBVLDPNRf+cgPZX80HYXY+Hqnk1//M7dXMbFtX0xwxoa51eKD4JBm4jZJiNYgMS84LzcvNiz2LISdhwnO2DB7ejrpiQcwwd3NFuBlYXGRHnm5Qw+IcDPEh04EzNv1QgsF5yO248ePN6JTYGLbOZjgjA2zt7eLDt3/u1zy06HqtLhQoGqlTLXyElVZLtVyhWq1qsjv8L/sk/NasVH54VkMmIPqHzoDwWGaViuxAZPbzsIEZ2yYvX3ddOjTv8NXkV5CkFyBI7gqR07VJRVcDbKr1qheq/G6SpOzc/T6ydNUS2XonfOX5DwQprtedv/8b4NXFR8GI2MMHJ5oj4gN07QwUNnEZgATnLFh9vaz4BDB1fgSQoclCw73ZauhzYsFV8PCgqtWqiK3icuzsv726bNUTaUp0ZGnt3/0Y62MeeWxP3E9n7xwlcXCIh18tnVHP8SHTgVEaj6Ce/PNN1WUm3RzAqP9McEZG+alPz8obmPDybZPUSG46lJRorgap6gT07OarrLowLdPvUfVRJIS+S5668y7sg+88thBFhxKMflTxKMdUX+d01yuE6murmv0uW/04cCVmNyMABsHZ2wYpKReSI0Ff30UxkxdmZf0FAfGU0mKJRPBMcsJzxNv8nbjOH84r+v8569+a4L+8hPj9PRvnlep+YWB2ExuBjDBGdeFhv+wT5AIiIxiNDXLckPnA+SGWQWcUoLRni4a7dMpYB8+0LxTCWTmhYYV65PqXJA1V1OvaxkfBcnV6zWamJqR44GJzYhigjOuA7GOrhtAQkST0zMSuanr8IqkkyjFkpOjkykaGxqi20ZGsEVHP/8ZPY4XkVwsTrk8nnjGR8vpeGl+zuWZeRbonOwf+tU/MrEZLTHBGRtG3Ab7wD2Ad0xNT9Pk1HQgN/zVYyQKkwN5M6EPs0kkIw+1cXJToWFbV4LbJ2LDlYuI0EWFhtEKuzqMDfHiow+qi1hZqh1s8AKDNSyGd+Qg2ZdMxOn0hQlJOwnTrNxbipbkVCcyNaJWhnMQFU5Oz8q2IO/psnt4SHYZRogJztgYcI+s0BaGHU1V6TtNnKN4rWcgeovFdR5pQ2z8Ht4NawHYOzUzwykp2trk0/hYjKur6jmoE3/9hxhGgAnO2Bi4chpSWa4l6TUV/P66RG9YyxkSveG95nmYcpXk/Zhf2lziNHWZ011xmLbtYUMlJ6dJPQf2jNEH7rjD7TCMJiY4Y4N4QfGy3FWK2kiKKZaVRlvwE78k0+wl7Uz4p/98TY6RI5dJD8dDZb4WvLr3pMgvvNmRSbvzDGMlJjhj3bz46P3qmqt6RYd3qKVcIZagGAsuKiUdHoJFj3PxmiJFnMsrWdBt4c/ntZwbHG8YDhOcsW5WqERCMxS8dDyammpKWafT5yckPY1hQU9pS7QOqQ7VNgpYBWsmm+ZIkMuzCwWp/9fvu1f2G4bHBGesG1GQOMYJDRGUK6p6RGmUSmpq6kE5lumQ4zVFjVx+rg6pROa38sLnSKcC6gnqyqZTcpzO8+d4j4+PPpvBMExwxgaBWbCEVuIFQnKegY/0XegOryw1pKdub1w6Hoi+cRjPRPD1MChK2tnc52vQdQAfIrMd+EMxT9UwQkxwxrqJBFMK9vkCh1WI3lDWfRphxZBSuoG5Es25CK5RVbRS7zjslrdgM43e5FB+qbtBwRBcpVLGQYbRwARnrIvn/vTT/Oqb+BvmcSJi4cA8y3ZrAdFVLJvjHc1LrlJekrXU1XwJqNP+vbtZYm6TkcDOh4jAdVhAoLgPnWGEmOCM9aGhk0rHSUzWvP/983rrcBnz1nhf5XNmapavtmTTYSwl3Buuga9LaBpNYsDgPWl7A/Jz8HHZPL8NjfIfa4MzIpjgjHUhItGCA9vNToCUm2MagptfInrz6Sm8hPvDIa0Egb8c2I/6dMt9ImUzSE2xhZSU90OYefdgauxnwX30Az+j24bBmOCMa+bZh3+f1eKjK9WOF5vuYaRbk4+RDe3ZjKXSsmh+yXvRQ8rvVWSNo3ntq0UZf2XRssjLfU7zMC6jRxZTvnCM7OJ9jSlghmGCM9ZDAlOs/CUDial0vISkY0FkIztQoEqpTMnuXhWRQzoEOD2Ne+H5ehpo0umKsnQgekMBt1uCGPFz5LolOpQD0A7H9aazGTnNMIAJzrgmnv3sH7J0MHaNNxphFFADQVIiKmzpStvYkLKms3IU8Megom+98V36h0MPSxUqOU5NpR7ZJS+SxHJUKHLDh2PhA2Ist1iui4ua5uJng/gSSddGZxiMCc64JnQ4Bi4XCMYZzpsIa1WSQyVV4ugtPTxKPzz3PntJz4H0KkhbG5GgO49XTmN+gz8K65rMWMC2SAwL3pPoraRlwPXHEnE6c/ac22EYJjjjGvi7hz/FYolzNKWCca4SvJQuTkzxBoSkxqmUq5Qd2S3n+BPQCXD5yhxqaAivWq3J0+mr1Yo8lEYeOcjrSrUsT8yqVJopKJY6UtvOHqJMTjoqPKgvvC26YQC7GoyrAhVJ9FRnyXH0VoXDmqGTrpzbEKGVFgqUHBrj1DRD9QSnjE5mFRYSHvWHbS84efVilDqdMlH0lcqn6646yw/pqba9Lefs+XE6d2HcbRmGCc64Cl995CF+hdy04R/rWi3mB3II45cmZD8iqlKR09Kx2ymZ72YRyhlyDHpTZxYWpezlBvz7jdpkhRf3jjsU07Eg11hnL1XjKY7yls9amJ2ft+jNWIFdEcaapHsGWRwJqpVwxw6fpHJayYarieyQYtZoqVCgcqVOqaFdlMh10lKpJGnnqfe0TQzpKaK3fK6jIbiXHzso64bkeDfKTf0Bjhpj/PmQJX9mNdkhqWuUGU59DSOKCc5YlWeOfIHiqRSlBsYoke+TXsoay6WOKVEcQWH6VXmpTOUSl5NZSo/sEbmVl0rSAaDppUZv03PzUvadC//+nTdYZFCZvgI9HNEi5Kll1qKU0SEb6x6kCp/fcsZCEBUahscEZ6wORIJG/WwHZUb2UmZ0HyUHd1G8b5TiAxypDd1Ol2N5SrHYMrzEkikqFRZpqViUlNUzNT3T8M/K9NS/IgXlj+NIrYK2PtmO0cVLU1Tj+jDndKnKgkXoGAHnI5o0jCgmOKMlX/vC4xJSIVpCwz5IZDo4Ze2nTP8wZXoHKNXZTYlsjhLprHQuFBfmOZpjGbGpRHBoN+Pzm1O0lkdZSHnRYVGpsdQk5cU+FRWOxGdXOUKMdXL0mOuVVLgl5jZjFUxwRksmJyZoanJSJcdikadYQVzsGEgI5QvnL7DYKtKjuVQsyN1BNH307Wh4TiqiN2w1e05Rfv7xz7GwuB5OeWP1KuI13q/te1ypDAcRn2XzVE1laUnGvK1iMlet9aAaUUxwxgoO//H9Mo0Kkdfk1BRdmrhEF8cvSM8lxqnVZLxaWdrZELFBbIjUfCSFFZYfnH5XxqY1URPhRpfZ0b2UGt5HlO+XVFTa9liU1UJB2vjq8TQlekd4GaIKRLia3BgR5xrvGzsXE5yxgngc0VbcicPtZAldmpikickJunjpIlVZahgWItOxIBcO7erScuYOZ+FdvnIFJVlQV2euQ97DdKp4Iskpbhdlh3dTdvedlB77KUoO3EYZV06P7qN4mo/nuhPJBAt39UtVfk4shhHBBGcsI5VKaZuZF4asYhxR6T5JU1lqizKmDSklej0xXETLOAbCgfzKkB/2yf7mpZbkz5B6IEZ+C7JLcCqa6uqjOKej6Kyoljkl5VQVxOOYobD6XUJEcIbRAhOcsYxDD3yKXzl6EzEBFhjEhiCNX7DkczlJSdGjWa1q2hoO3ZCOCTTWBTQdFKPf+LWP8flVif7QgSFrXtCeV0MaXOKUt1yR6A3yinFEKc9vWEVk0zYGzlgFE5yxEniEF8RkKhUWHP+B2HIdWZlyhfY3n6ZCTjhaqUubXBL3f2NKmFLlBAkgqwvj49JBcf4nP9E6uK4aFqS8aONj0akk9SRITuaZ4meRRXYvwzoYjFaY4IwGRw4+KOkpRCJqgUx4GzMQujq7EZpRuYSOhYJ0LuCp8hJ9NeSGDlCOxFhS//W9426PCgrig7BKhQL28Cafw2nq+IULNA7ZnT8v5QvjvO2W2dlZnbXA5+vPhcsVdYWG05TYMFphgjMaJNJpSmU7KJnJUIqXJG8nkknq7sVtwTkyc7MXMGwETgvFBhDNYchIOpdfJp2lJZYU5La4SK8df1veQworaSxEx4vcGclJD+tsNosPkPckYuRUNp7UKE7qdvVLO13wWYYRYoIzhOe/dJgSiaS2dyFqQ8M/y62nt5ffjUnaCXmh7QwCEhnx367OvKwhN4gnk+tUAYXw5pXZK/T6iZOyKXVAkkhDXXudrxPlDsiNqVOVcq7nFXXIrZX4eOnh1b3yc634PMNwmOAMAYLq6+nhpZf6+/t56aPOTswrXdIZCsWitpehE4DX6AxAW5ncv423EV11dPfIEJCobirlCr1z7n+l/NSjj/BFhy4MCFJCNHe833ZAdhLN+SM0coN8K/y5AHKT2y8ZxirY1WEIGOYhqWCpJHNJ0dZWXFiQtBKzFJaKvC7wGtuFRelkwDaGcGTyeerqH+JaYiLAQFMiqrfO/Mht8AWXQFsaF0RgmqIui944NZYyDsaB/BedG4KaUN4v8c+3yOLN9fTpTsNogQnOEJYKC9pBwNLBGpEZIqTS4gItXpmh4vwc72d5cXqZyXdSB0d6A3v2UWf/II3s2sMynONj50VSr73xXVcrrbi1UYKFmEhgQecFG0sCN4jOyU3+MD7tZJn5NdJa7cSoSidHltPhhEtnDaMVJjhDKHNUVpibFaEhHcX93DSSK0i7XPfQMPXftodGf/oA9e/aS31juyjNQkKqOjc1Ie1zTkkNIMsT7n5wHngLaSXa99CJkczowGJ0KtTVdxq4OcEhsoRsM3yspMOcniKahHw7+/r1BMNYBROcIXQODMlYM9zLrciRGNrdIJNsVw8N7d1P3YPDXO4WKaG9DfhnIMjC21HXvHXmXVdqMjo8TKMjw25LdKY9pii7aA1tbuw1/nyd84r2QYyVk4iSfy6kxYMcPSYzWXrp2Kt8WvSTDUMxwRlCB8urZ2RMIrMulllnfz91sfS6BwdFJOhV1agKHQTa4A+xJdMZSmc7qJePd0GXUMHQkAjpVIojw6JEe0MDAzQ8MMjLgLTF+ZkROjsCN9IsSQcH5CbSnZ+nJKsv29VFPcMjlM3nJbXFz+CndBlGFBOcofNPYyortK/l+wY4/RtkiXRSDGLjP0pgMAZbiZSmmvI8UjffFLL6/ntnpRzytcNPSPsZOjMgL4gOZRGci9YQpaGjQ9JRfh/tehWWIj6ni4XY3T9EmVxeztUZFBzx8fmG0QoTnKFIcMYvLjKLcfopKWhEakq9KSUWFKIu7REl6WBolZoC3O0X0ZgOFq5yGorzWHhIP1lqIjxe0P4HseFnQScGIsvesduknO/MSx1eakhPz16ckLJhRDHBGfTC00825MYvDcnpPj2mCcuNpYLBukUWVmlhQXo0IR08UAaR2WqUCgvSkbE4d4UWr8xSgZeF2WkRnAoL7XA1iRz7x3ZT78go5Xv7OGLL8Y8Sl+gOUvVtdcCiN2MtTHAGlOW8pnKTfSKRpkiasPycCMvFAhUXF6RDAmPjMNQk2msa0j+2SwYDx5NJPh111yjF6S1Szlxvr7T9Dey5XTs0Ors4LcXjATGQWNNYL7Z8Pi9rYO1vxlrEyuVyq6vY2EE8/+QRSmazLJ4U/5On/+ZhFkGRIzN1nF4iIj1ekEYW5ueoyJEYBgF/6eV/lPevxrHnnuVXroNlhV5RDsckMpubm1OxuqXCURrmnsr4OByvH+/ARowWOHIEn//yV2RtGK0wwRn0N599SDoYMGg2lc01hn8sschkiAamZUFKMvB3USK4x7/6jDv72nn1hRdYTbjceGGJSfTFIp2dndED+F20y0nvqcjNSU+uUH+Z6nphocClOh0ywRlrYIIzGjz50AOsDHfvNd5ecqkhejqPvPh1Peg6+Obfv6h6QropcoPkajQ7MysuAxj7Jh0RsuV2RkBkhwhzdmaajjzzvNtrGCsxwRmbxqsvcgQnERlfchBcVW9sKYID/Bba3BDBieBcyirwOThW5swuFWWWxTyntn999Ji+bxgtMMEZm8ax559lX+msB7ZVEMEhReXLkP8iHS6XK5yqstBYbjgWMpPbmfPxKH/xuZdQg2FcFROcsWkc/duvSA+qT4FjSDU5JZ2Znm5EaEhPZRCwzGbQAcEQ4RdfeEUrMYx1YIIzNo0vP/qwdGKkZOpXnFJ4fGA8TjOXp7QDo7AoD5vBnYP/4pVjK+5EYhjrxQRnbDqYGvbUZx6kpEwD09tZTk9fpideOKoHGMYNwgRnGMa2xWYyGIaxbTHBGYaxbTHBGYaxbTHBGYaxbTHBGYaxbTHBGYaxbTHBGYaxbTHBGYaxbTHBGYaxbTHBGYaxbTHBGYaxbTHBGYaxbTHBGYaxTSH6f1/BcDKzqi2pAAAAAElFTkSuQmCC;" parent="1" vertex="1">
          <mxGeometry x="110" y="190" width="250.37" height="390" as="geometry" />
        </mxCell>
      </root>
    </mxGraphModel>
  </diagram>
</mxfile>
